<?xml version="1.0" encoding="utf-8" standalone="no"?>
<!DOCTYPE svg PUBLIC "-//W3C//DTD SVG 1.1//EN"
  "http://www.w3.org/Graphics/SVG/1.1/DTD/svg11.dtd">
<!-- Created with matplotlib (http://matplotlib.org/) -->
<svg height="540pt" version="1.1" viewBox="0 0 648 540" width="648pt" xmlns="http://www.w3.org/2000/svg" xmlns:xlink="http://www.w3.org/1999/xlink">
 <defs>
  <style type="text/css">
*{stroke-linecap:butt;stroke-linejoin:round;}
  </style>
 </defs>
 <g id="figure_1">
  <g id="patch_1">
   <path d="M 0 540 
L 648 540 
L 648 0 
L 0 0 
z
" style="fill:none;"/>
  </g>
  <g id="axes_1">
   <g id="PathCollection_1">
    <path clip-path="url(#p22c90f8caf)" d="M 391.399905 396.532233 
L 390.709671 396.986502 
L 390.834276 394.601345 
L 391.206129 393.804658 
L 391.612322 393.210086 
L 392.113195 392.841176 
L 392.484557 393.362163 
L 392.166667 394.515986 
L 391.290507 395.929812 
L 391.399905 396.532233 
" style="fill:#efefdb;fill-opacity:0.65;stroke:#000000;stroke-opacity:0.65;stroke-width:0.5;"/>
    <path clip-path="url(#p22c90f8caf)" d="M 390.409932 382.813904 
L 390.222534 382.936547 
L 389.592641 381.689515 
L 390.858805 380.490559 
L 391.282168 380.977206 
L 390.945636 381.92597 
L 390.574274 382.594128 
L 390.409932 382.813904 
" style="fill:#efefdb;fill-opacity:0.65;stroke:#000000;stroke-opacity:0.65;stroke-width:0.5;"/>
    <path clip-path="url(#p22c90f8caf)" d="M 423.80752 357.57206 
L 423.801142 358.09599 
L 423.382685 357.829119 
L 422.274485 358.032216 
L 421.886934 357.636816 
L 423.384648 355.94827 
L 423.686839 356.193555 
L 423.919861 356.501634 
L 424.080277 356.931374 
L 423.907596 357.209038 
L 423.80752 357.57206 
" style="fill:#efefdb;fill-opacity:0.65;stroke:#000000;stroke-opacity:0.65;stroke-width:0.5;"/>
    <path clip-path="url(#p22c90f8caf)" d="M 435.170127 350.064361 
L 435.484092 350.340061 
L 434.904237 350.31259 
L 434.25374 350.555913 
L 433.253466 350.771764 
L 432.850707 350.367533 
L 433.715093 349.80632 
L 434.029059 349.383448 
L 434.254721 349.471751 
L 434.544158 349.776886 
L 435.170127 350.064361 
" style="fill:#efefdb;fill-opacity:0.65;stroke:#000000;stroke-opacity:0.65;stroke-width:0.5;"/>
    <path clip-path="url(#p22c90f8caf)" d="M 487.672514 252.926384 
L 487.327643 253.518013 
L 486.928808 253.42971 
L 486.771826 253.033328 
L 486.480917 252.646758 
L 486.637409 252.344567 
L 486.903299 252.172867 
L 487.636702 252.199357 
L 487.672514 252.926384 
" style="fill:#efefdb;fill-opacity:0.65;stroke:#000000;stroke-opacity:0.65;stroke-width:0.5;"/>
    <path clip-path="url(#p22c90f8caf)" d="M 489.277172 249.145062 
L 488.883734 249.361894 
L 488.843998 248.723171 
L 489.869782 247.917653 
L 490.038048 246.965945 
L 490.576204 247.406478 
L 490.719451 247.893125 
L 490.710621 248.09524 
L 489.277172 249.145062 
" style="fill:#efefdb;fill-opacity:0.65;stroke:#000000;stroke-opacity:0.65;stroke-width:0.5;"/>
    <path clip-path="url(#p22c90f8caf)" d="M 431.452579 147.094507 
L 430.463588 148.078592 
L 430.789327 146.936543 
L 430.623024 146.149667 
L 430.751553 145.540377 
L 431.426089 144.950711 
L 431.632128 144.863389 
L 431.57326 145.588453 
L 431.620845 145.811173 
L 431.452579 147.094507 
" style="fill:#efefdb;fill-opacity:0.65;stroke:#000000;stroke-opacity:0.65;stroke-width:0.5;"/>
    <path clip-path="url(#p22c90f8caf)" d="M 427.596691 130.800679 
L 426.953552 131.284382 
L 426.745059 131.533592 
L 426.21279 131.348157 
L 426.309432 131.070493 
L 426.466415 131.098946 
L 426.636643 130.292448 
L 427.54469 130.3886 
L 427.596691 130.800679 
" style="fill:#efefdb;fill-opacity:0.65;stroke:#000000;stroke-opacity:0.65;stroke-width:0.5;"/>
    <path clip-path="url(#p22c90f8caf)" d="M 357.776654 131.965295 
L 356.713096 132.154655 
L 358.082771 129.64195 
L 359.308708 128.472429 
L 359.326368 126.151047 
L 360.654835 124.086724 
L 361.876357 123.245885 
L 363.58894 122.999618 
L 364.525931 124.258424 
L 363.364749 127.825856 
L 363.025274 127.84646 
L 361.467711 129.728291 
L 359.734033 131.04204 
L 357.776654 131.965295 
" style="fill:#efefdb;fill-opacity:0.65;stroke:#000000;stroke-opacity:0.65;stroke-width:0.5;"/>
    <path clip-path="url(#p22c90f8caf)" d="M 379.918579 119.862907 
L 380.857532 119.907058 
L 382.18698 119.716717 
L 383.077367 119.24675 
L 384.073716 119.154522 
L 385.059274 119.203579 
L 388.378968 119.725547 
L 390.37363 119.887435 
L 391.103109 120.054229 
L 391.815909 120.291666 
L 392.336405 120.547744 
L 392.466897 121.105033 
L 391.981231 121.99591 
L 391.620171 122.9329 
L 391.283639 124.240763 
L 391.023637 124.506652 
L 390.5885 124.436991 
L 390.859295 125.607494 
L 390.760691 126.075499 
L 390.54533 126.530749 
L 390.011589 127.475589 
L 389.202637 128.678469 
L 388.962257 128.930622 
L 388.3461 129.348589 
L 387.845227 129.883311 
L 387.952662 130.385656 
L 388.203344 130.891925 
L 387.906548 131.525743 
L 386.948953 132.452923 
L 386.375966 132.677604 
L 385.848112 132.771794 
L 385.361956 132.681529 
L 384.499532 131.752387 
L 384.409267 132.479413 
L 384.177227 133.223119 
L 383.883865 133.630293 
L 382.770269 133.587123 
L 382.149697 133.188779 
L 381.144517 132.747265 
L 380.953194 133.941315 
L 380.328206 134.764493 
L 379.698313 135.022534 
L 378.711775 135.196196 
L 378.145656 135.546464 
L 377.078664 135.272725 
L 376.08771 134.725248 
L 375.527478 134.678153 
L 375.089888 135.120648 
L 372.787638 135.202083 
L 371.73242 135.651446 
L 371.08781 135.523897 
L 370.139045 134.617322 
L 369.986968 134.01392 
L 369.422321 132.791417 
L 368.915561 131.339326 
L 368.554501 130.020671 
L 368.858655 128.880584 
L 369.47334 128.918849 
L 370.200857 129.088586 
L 370.355387 129.008133 
L 370.391199 128.643148 
L 370.230782 128.339975 
L 369.058317 128.388051 
L 368.318045 127.711063 
L 368.189516 126.665165 
L 368.341593 124.490954 
L 368.437745 124.044535 
L 368.954807 123.421509 
L 369.124054 122.870107 
L 368.996015 122.284366 
L 369.218243 121.221789 
L 369.702437 120.301477 
L 371.550418 119.141767 
L 373.693723 118.729688 
L 379.918579 119.862907 
" style="fill:#efefdb;fill-opacity:0.65;stroke:#000000;stroke-opacity:0.65;stroke-width:0.5;"/>
    <path clip-path="url(#p22c90f8caf)" d="M 369.628361 118.882746 
L 366.880672 120.848955 
L 365.950059 120.203363 
L 365.758246 119.829548 
L 365.91621 119.452789 
L 365.88236 119.291882 
L 366.190439 118.617837 
L 367.726417 118.064473 
L 368.499066 117.970774 
L 369.486586 118.142965 
L 369.651418 118.623724 
L 369.628361 118.882746 
" style="fill:#efefdb;fill-opacity:0.65;stroke:#000000;stroke-opacity:0.65;stroke-width:0.5;"/>
    <path clip-path="url(#p22c90f8caf)" d="M 381.7749 118.689461 
L 379.113062 119.004407 
L 377.894974 118.503534 
L 378.170184 118.081153 
L 379.078231 117.408089 
L 380.184469 116.930273 
L 381.176404 116.719327 
L 382.211018 116.985217 
L 382.494078 117.549374 
L 382.408228 118.117455 
L 381.7749 118.689461 
" style="fill:#efefdb;fill-opacity:0.65;stroke:#000000;stroke-opacity:0.65;stroke-width:0.5;"/>
    <path clip-path="url(#p22c90f8caf)" d="M 378.817738 114.86595 
L 379.229327 115.39037 
L 377.80569 117.490996 
L 377.020776 117.793187 
L 376.162767 117.854509 
L 375.051133 117.22854 
L 373.318436 117.273182 
L 372.777336 117.124539 
L 372.72043 116.209133 
L 373.448438 115.231916 
L 374.902 115.284407 
L 377.403422 114.500474 
L 378.817738 114.86595 
" style="fill:#efefdb;fill-opacity:0.65;stroke:#000000;stroke-opacity:0.65;stroke-width:0.5;"/>
    <path clip-path="url(#p22c90f8caf)" d="M 371.906573 116.161058 
L 371.727514 117.637186 
L 369.919269 117.01367 
L 370.054667 115.502711 
L 370.900902 115.079348 
L 371.650985 114.275793 
L 371.907063 113.290726 
L 371.922271 111.951467 
L 372.200425 111.718937 
L 372.442767 111.623766 
L 372.661562 111.715503 
L 372.74643 113.726353 
L 372.84945 114.957687 
L 371.906573 116.161058 
" style="fill:#efefdb;fill-opacity:0.65;stroke:#000000;stroke-opacity:0.65;stroke-width:0.5;"/>
    <path clip-path="url(#p22c90f8caf)" d="M 374.651318 113.61156 
L 373.56225 113.951525 
L 373.359154 113.633635 
L 373.357682 112.370905 
L 373.664289 111.678219 
L 375.054567 111.484444 
L 375.196833 111.280857 
L 375.596648 111.149874 
L 375.817896 111.584029 
L 375.785518 112.307622 
L 374.651318 113.61156 
" style="fill:#efefdb;fill-opacity:0.65;stroke:#000000;stroke-opacity:0.65;stroke-width:0.5;"/>
    <path clip-path="url(#p22c90f8caf)" d="M 373.18402 98.084004 
L 372.181293 98.542688 
L 371.605362 98.365592 
L 371.074074 97.16958 
L 371.254604 96.174211 
L 371.980649 95.844057 
L 372.544315 95.914699 
L 372.751827 96.042248 
L 373.25319 97.671434 
L 373.18402 98.084004 
" style="fill:#efefdb;fill-opacity:0.65;stroke:#000000;stroke-opacity:0.65;stroke-width:0.5;"/>
    <path clip-path="url(#p22c90f8caf)" d="M 273.290996 64.734002 
L 273.892927 64.926306 
L 274.291761 64.926306 
L 274.654293 65.374197 
L 274.934409 65.878995 
L 275.812531 66.49319 
L 275.72521 67.427728 
L 275.563321 68.254831 
L 275.449999 69.20752 
L 275.39947 69.932584 
L 275.026146 70.674818 
L 274.467385 71.367995 
L 274.303044 71.649582 
L 274.225534 72.015058 
L 274.602292 72.236796 
L 275.266526 72.303023 
L 276.097063 72.331967 
L 276.6622 72.546837 
L 277.393151 72.590988 
L 278.272745 73.186542 
L 278.700033 73.543677 
L 278.735844 73.82085 
L 278.456709 74.48263 
L 278.34535 75.094372 
L 278.563163 75.481924 
L 278.821204 75.761059 
L 279.534494 77.140054 
L 279.873969 77.619832 
L 280.161934 77.774362 
L 280.228652 78.040252 
L 279.984838 78.543578 
L 279.692948 79.184263 
L 279.032149 79.856836 
L 278.943846 80.388615 
L 278.415011 80.722694 
L 277.181715 81.516929 
L 277.396095 82.776225 
L 277.438774 83.414948 
L 277.415227 83.910916 
L 276.994317 84.575149 
L 276.264838 86.536943 
L 275.996986 87.515141 
L 275.76004 89.776183 
L 275.775738 90.534116 
L 276.112761 91.554994 
L 276.827523 93.819961 
L 277.234697 94.18053 
L 278.178065 94.712309 
L 278.295802 96.244363 
L 278.212896 97.844115 
L 278.168254 98.464687 
L 278.323765 98.730577 
L 278.747618 98.858125 
L 279.049319 99.050429 
L 279.096905 99.52383 
L 279.068451 100.015383 
L 279.77144 100.299423 
L 280.383673 100.480444 
L 280.94881 101.159394 
L 281.97116 102.215103 
L 282.377353 102.407407 
L 282.58094 102.845487 
L 283.442874 103.735383 
L 284.757114 104.060632 
L 286.082146 104.453088 
L 286.603623 105.01283 
L 287.147176 105.467589 
L 287.556312 105.491627 
L 287.903636 105.418532 
L 288.475152 105.026566 
L 288.934326 104.689544 
L 289.733466 104.708676 
L 290.669967 104.653241 
L 290.832346 104.376069 
L 290.921139 104.019424 
L 290.728345 103.10598 
L 291.060952 102.828808 
L 291.836054 102.673297 
L 291.991074 102.18616 
L 292.168661 101.92027 
L 292.389909 101.610229 
L 292.655798 101.566078 
L 292.987915 101.743174 
L 293.497618 101.854043 
L 294.073549 102.009063 
L 294.38359 102.319104 
L 294.895255 102.345595 
L 295.464318 102.286236 
L 295.694395 102.088536 
L 295.86168 101.743174 
L 295.985304 100.998487 
L 296.351761 100.976902 
L 297.084183 100.809127 
L 297.865663 100.480444 
L 298.909598 100.432368 
L 299.887306 100.439236 
L 300.376406 100.218479 
L 300.831656 99.738701 
L 301.713212 98.38129 
L 302.174349 98.067815 
L 302.669825 97.833322 
L 303.090735 97.876002 
L 303.954631 97.651321 
L 304.664978 97.326072 
L 304.928415 97.407997 
L 305.481779 98.104608 
L 305.758461 98.257666 
L 306.165635 98.306233 
L 307.499988 98.659444 
L 308.207882 98.549556 
L 308.975626 98.327328 
L 309.712954 98.24344 
L 310.244243 98.39846 
L 310.626888 98.197326 
L 311.055647 98.047702 
L 311.356858 98.146307 
L 312.029921 98.231176 
L 313.624277 98.618236 
L 315.706261 99.05141 
L 316.274833 98.902277 
L 316.613327 98.596651 
L 316.693781 97.700868 
L 316.757064 97.069013 
L 316.288569 96.510743 
L 315.704789 95.877416 
L 315.166633 95.087596 
L 314.523004 94.863896 
L 314.606401 94.457212 
L 315.024367 94.037284 
L 315.453126 93.805243 
L 315.701846 93.520222 
L 315.97166 92.467947 
L 316.151699 92.282511 
L 316.333701 92.237378 
L 316.550043 92.276133 
L 316.973897 92.5484 
L 318.613385 93.385805 
L 319.333053 93.259238 
L 322.081723 93.039462 
L 322.497236 92.555759 
L 323.079544 92.446362 
L 324.067554 91.965602 
L 324.458049 91.932734 
L 324.806845 92.048999 
L 325.246887 91.957262 
L 325.894931 91.50888 
L 326.167689 91.461785 
L 326.270709 91.957262 
L 326.691128 92.469418 
L 327.198379 92.941348 
L 327.443664 93.050255 
L 328.295786 92.897687 
L 328.744168 93.02916 
L 328.937944 93.468221 
L 328.993378 93.851357 
L 329.350514 94.175625 
L 329.808707 94.183474 
L 330.053012 94.313966 
L 330.469507 94.521968 
L 330.825171 95.000275 
L 331.648839 95.381448 
L 333.055797 95.916661 
L 333.709728 95.925982 
L 334.318527 96.089342 
L 334.693323 96.25025 
L 335.098535 95.954435 
L 336.538361 95.129785 
L 337.239878 94.670611 
L 337.712788 94.322305 
L 338.067471 93.990189 
L 338.333361 93.901395 
L 338.510457 94.100567 
L 338.665477 94.366457 
L 339.178124 94.52344 
L 340.381004 94.834952 
L 340.933387 94.923255 
L 341.70849 94.658837 
L 342.36978 94.208983 
L 342.687179 94.052982 
L 343.178731 94.500383 
L 343.513301 95.132729 
L 343.738473 95.407939 
L 344.237874 95.343184 
L 345.220488 95.439826 
L 345.949477 95.64047 
L 346.400311 95.622319 
L 347.016959 95.341221 
L 347.349076 94.787367 
L 348.223273 94.279626 
L 349.054791 93.812602 
L 349.531627 93.189086 
L 350.236577 92.15251 
L 350.473032 91.708052 
L 350.521108 90.959441 
L 351.514024 88.784249 
L 351.890292 88.385414 
L 352.11154 87.698615 
L 352.510865 86.901437 
L 352.510865 86.236713 
L 352.799811 85.593574 
L 353.368873 85.037267 
L 353.788802 84.689942 
L 354.460394 83.755405 
L 354.927418 82.87532 
L 356.098901 80.920394 
L 356.188185 80.36654 
L 356.653247 80.033933 
L 356.808267 79.613513 
L 357.304725 79.094979 
L 357.827183 78.6829 
L 358.050393 78.076554 
L 358.43402 77.44617 
L 359.274368 76.97375 
L 359.584899 76.756918 
L 360.536607 75.02373 
L 360.644533 74.249118 
L 361.504013 74.220175 
L 362.854556 75.114486 
L 363.931359 76.43216 
L 365.374619 80.671184 
L 365.614508 84.587904 
L 366.19976 86.640453 
L 367.877022 90.917252 
L 367.984457 91.709033 
L 368.253781 92.666137 
L 368.783597 93.681129 
L 369.368358 95.352995 
L 369.390434 95.663527 
L 369.010241 96.119758 
L 369.56753 96.150664 
L 370.072328 96.420478 
L 370.401991 97.480602 
L 370.818486 98.197326 
L 371.5774 99.178468 
L 373.130548 99.499302 
L 374.303012 99.616548 
L 375.638347 100.171875 
L 376.618508 100.883693 
L 377.377421 103.29436 
L 377.129683 104.810224 
L 377.203759 105.875745 
L 376.811302 106.293221 
L 375.713404 106.991303 
L 375.474496 107.361684 
L 373.229643 109.163552 
L 372.739072 110.014693 
L 371.536192 111.157233 
L 370.345085 113.335368 
L 368.601596 115.324143 
L 367.985929 115.826488 
L 367.043542 115.942753 
L 366.471536 116.251323 
L 365.116579 117.874132 
L 363.298522 118.416213 
L 363.131238 119.356637 
L 362.080434 121.505339 
L 361.154727 122.678785 
L 360.56457 123.077128 
L 359.081573 125.218962 
L 358.891722 126.154971 
L 358.901043 127.792497 
L 357.911071 128.790319 
L 356.881362 129.424137 
L 356.752342 130.825208 
L 356.28679 131.304005 
L 355.888446 131.616008 
L 353.790765 131.249061 
L 350.533863 132.771794 
L 349.421248 133.150515 
L 352.976417 133.229006 
L 354.117975 134.038448 
L 356.620869 133.501764 
L 359.647692 131.568914 
L 360.803968 131.164683 
L 363.153313 129.852896 
L 364.107965 128.978698 
L 365.849982 127.929857 
L 366.220854 127.469702 
L 367.1966 126.980112 
L 367.725436 127.603137 
L 367.766644 127.997556 
L 366.966032 128.764809 
L 367.174034 129.259305 
L 367.702379 129.880368 
L 367.893702 130.735924 
L 367.962872 131.387402 
L 368.289592 132.529452 
L 369.366396 134.075732 
L 369.403189 134.586907 
L 369.255036 135.25997 
L 369.770136 135.816278 
L 370.304368 136.145942 
L 372.136651 137.809959 
L 373.57108 136.879836 
L 374.452637 136.611003 
L 375.016303 136.222471 
L 376.195636 135.96443 
L 377.162551 136.353944 
L 379.005627 136.914176 
L 380.353716 136.319604 
L 383.083253 134.95876 
L 382.22966 137.368445 
L 381.61154 139.577977 
L 381.141083 140.469835 
L 380.67504 142.877558 
L 380.213413 143.520206 
L 379.839598 144.2541 
L 380.448887 143.998022 
L 380.970854 143.650698 
L 381.638031 142.723518 
L 382.138904 141.113464 
L 384.114434 136.815081 
L 384.679572 136.433416 
L 386.322004 135.943826 
L 389.148184 132.506885 
L 390.25344 132.517678 
L 390.960844 133.308479 
L 391.630473 133.775502 
L 391.802173 132.835568 
L 392.767126 132.45096 
L 391.745757 131.985899 
L 391.578963 131.564008 
L 391.48183 130.860529 
L 392.176479 129.909802 
L 391.762437 129.068963 
L 393.202263 128.007368 
L 393.090903 127.21068 
L 393.604531 126.553315 
L 394.254538 125.878289 
L 394.990885 125.549607 
L 395.125301 124.969752 
L 395.589872 124.730353 
L 395.954366 124.644012 
L 396.674034 125.292547 
L 397.453061 124.526275 
L 398.213937 124.226046 
L 398.554884 124.359481 
L 398.979228 124.697975 
L 399.425157 124.842203 
L 399.787198 124.781372 
L 400.729095 124.290801 
L 401.599368 125.080621 
L 402.122316 125.255264 
L 401.97907 124.812769 
L 401.703369 124.40167 
L 401.917258 124.067101 
L 402.328847 123.856155 
L 403.629841 124.044535 
L 404.313697 124.396765 
L 405.053479 125.049224 
L 406.081225 125.0973 
L 406.887724 125.02862 
L 407.396937 125.395567 
L 408.225021 125.393605 
L 408.640044 125.96463 
L 409.900811 126.767204 
L 410.174059 127.311738 
L 411.18807 127.575665 
L 412.138306 127.909253 
L 413.151826 128.0005 
L 414.173685 127.921027 
L 414.215384 128.609789 
L 414.964976 128.796206 
L 415.926986 128.642167 
L 416.654013 129.489873 
L 418.597655 130.126635 
L 419.944273 131.10189 
L 420.82681 130.929209 
L 421.81482 131.186268 
L 422.875435 133.307497 
L 423.115324 134.813551 
L 423.587744 134.605548 
L 424.025333 133.931504 
L 424.592924 132.701152 
L 425.655011 132.292996 
L 426.163242 132.765907 
L 427.228272 133.523349 
L 428.146621 134.355357 
L 428.533682 134.889099 
L 429.223915 134.97642 
L 428.647494 135.632804 
L 429.225877 135.567068 
L 429.925922 135.100044 
L 430.524909 136.064507 
L 430.975744 137.114329 
L 431.066009 138.183774 
L 430.641665 138.797969 
L 430.26736 139.182576 
L 429.851846 139.940018 
L 429.360784 140.076397 
L 428.870213 140.321682 
L 429.429955 140.873084 
L 429.814072 141.403882 
L 430.651967 139.969452 
L 431.241143 139.566203 
L 432.094246 139.342503 
L 432.537723 140.36289 
L 432.632893 141.326372 
L 431.243596 141.727659 
L 431.2382 142.489025 
L 430.822686 142.920728 
L 430.5514 143.415224 
L 430.332606 144.454253 
L 430.049546 145.314715 
L 429.221462 149.130377 
L 429.204783 149.758308 
L 430.213397 149.086225 
L 432.073152 147.142583 
L 432.639761 145.072373 
L 433.373165 143.030616 
L 434.172305 142.388949 
L 434.666801 142.387968 
L 435.408544 142.611668 
L 435.450734 143.280807 
L 435.337412 143.667377 
L 434.544158 144.682859 
L 434.206645 145.239167 
L 434.533366 145.787625 
L 436.336214 144.105948 
L 437.143204 143.516281 
L 437.830984 143.635981 
L 439.195753 142.859897 
L 441.943442 142.698009 
L 442.149481 141.810075 
L 442.697449 141.432335 
L 444.208408 141.532412 
L 447.151835 142.326156 
L 448.201166 142.974691 
L 449.772465 143.578093 
L 450.599568 144.295308 
L 454.055151 145.61102 
L 456.564422 145.752304 
L 457.807038 145.154789 
L 459.357243 145.780757 
L 460.178459 146.481293 
L 461.788022 146.861976 
L 463.412794 147.060167 
L 464.65541 146.556841 
L 467.85982 146.391028 
L 471.888881 145.647322 
L 474.292188 145.823928 
L 477.011424 146.309593 
L 478.949179 147.558587 
L 480.580819 148.26599 
L 481.567848 148.962601 
L 483.160241 149.683741 
L 486.559408 151.621496 
L 487.748553 152.741961 
L 489.856046 154.268618 
L 491.970407 154.909304 
L 493.114419 156.506603 
L 494.019032 157.22578 
L 496.259961 159.921959 
L 498.803572 161.809676 
L 500.504872 163.696413 
L 503.768641 164.912048 
L 505.042654 166.914559 
L 507.250715 167.158863 
L 508.192611 167.459093 
L 509.335642 168.303856 
L 510.909394 168.774804 
L 512.959 168.641369 
L 515.219061 168.73654 
L 517.046438 168.341139 
L 521.371312 169.094657 
L 522.051734 169.462585 
L 522.947027 170.315197 
L 524.525684 173.488211 
L 525.46709 177.00953 
L 525.932152 179.703747 
L 527.009936 181.797504 
L 527.598621 185.72894 
L 528.098023 186.966161 
L 528.137268 187.917868 
L 528.560141 188.13372 
L 528.845653 190.785747 
L 528.733803 191.855192 
L 528.320251 193.246451 
L 528.289345 193.866533 
L 528.350176 194.260952 
L 528.167193 194.841788 
L 528.110778 195.398096 
L 528.529725 196.64709 
L 528.552292 197.648836 
L 527.991078 198.861528 
L 527.226278 202.030617 
L 525.306183 207.284633 
L 523.466541 210.299683 
L 520.892515 213.413828 
L 519.215743 215.040562 
L 518.551019 215.206375 
L 517.941239 214.88456 
L 518.373923 215.743059 
L 517.995202 216.498539 
L 516.291939 218.790487 
L 514.598488 220.290653 
L 512.842244 222.892642 
L 512.708808 222.951511 
L 510.457087 223.9562 
L 509.125187 224.777416 
L 507.422415 226.271696 
L 505.859455 228.626437 
L 505.536659 228.92961 
L 504.960729 228.763797 
L 504.976918 229.959809 
L 503.631281 231.853413 
L 503.220673 232.13402 
L 503.231957 231.597335 
L 503.465468 231.18918 
L 503.574375 230.754534 
L 503.564564 230.237472 
L 503.188296 230.613249 
L 502.392099 232.031981 
L 502.659951 233.071992 
L 502.082058 234.6428 
L 499.877922 239.127601 
L 497.179291 242.900092 
L 496.557247 244.063727 
L 494.341828 246.604885 
L 492.714113 247.830332 
L 492.25641 247.839162 
L 491.737877 247.73418 
L 491.476893 245.781707 
L 490.179823 244.599431 
L 489.808461 244.391428 
L 489.276681 245.643366 
L 488.833696 245.986766 
L 488.19301 246.061332 
L 488.877847 246.606847 
L 489.07751 247.237722 
L 488.379918 248.500452 
L 488.358332 249.648388 
L 487.113754 250.91308 
L 486.393105 251.838297 
L 486.026648 252.997026 
L 485.805891 254.079226 
L 486.352878 253.783902 
L 486.61239 254.011527 
L 486.817939 254.34904 
L 486.691372 254.846479 
L 486.290575 255.786413 
L 486.352878 258.126437 
L 486.219933 258.658216 
L 486.618277 259.233165 
L 487.040168 258.251042 
L 487.283001 258.524781 
L 486.10514 264.79526 
L 486.56922 267.617025 
L 486.741901 270.813586 
L 487.27417 273.933618 
L 487.856478 276.723005 
L 487.903082 276.946705 
L 487.097565 280.184475 
L 486.068347 283.378092 
L 485.447284 285.982043 
L 485.056299 288.794978 
L 484.665313 290.146992 
L 484.541199 291.530402 
L 484.989581 294.808398 
L 485.156375 295.429461 
L 483.906891 296.891363 
L 482.558311 297.600728 
L 481.813133 298.305189 
L 480.165305 300.939555 
L 479.270994 304.832727 
L 479.249409 306.903918 
L 479.672281 311.242529 
L 479.354882 313.011528 
L 478.833895 314.195766 
L 478.216757 314.972831 
L 476.643005 315.905897 
L 475.233104 318.179204 
L 474.61989 320.568285 
L 473.653955 321.438558 
L 473.456255 322.775854 
L 472.6787 324.219115 
L 470.662944 326.372721 
L 469.352138 326.999671 
L 468.72715 327.601111 
L 468.330278 328.859917 
L 467.066567 330.935032 
L 466.134973 333.625324 
L 466.377315 334.541711 
L 466.393013 334.682014 
L 466.731998 337.791254 
L 466.606902 338.582054 
L 465.379003 339.439572 
L 460.753408 341.039815 
L 459.521584 341.703067 
L 456.759669 344.425737 
L 456.587478 345.068385 
L 456.702272 345.984772 
L 457.156541 346.511645 
L 456.688536 347.08267 
L 456.137134 348.106982 
L 455.332598 348.044189 
L 450.725154 348.046151 
L 448.231091 348.370909 
L 446.935002 348.308116 
L 446.353185 348.061849 
L 445.700725 347.659581 
L 445.504497 347.132708 
L 445.858689 346.335039 
L 445.649215 345.859185 
L 444.96585 345.877827 
L 444.215276 346.10349 
L 444.085275 346.580325 
L 444.138747 346.918819 
L 444.417882 347.414296 
L 444.57094 348.021623 
L 444.263843 348.550458 
L 442.803903 348.619138 
L 441.162943 349.104804 
L 439.116281 349.3079 
L 437.485622 349.658168 
L 436.732105 349.214691 
L 437.485622 348.992953 
L 438.564879 349.100879 
L 439.724589 348.733932 
L 439.453793 348.300267 
L 437.813814 347.740035 
L 435.992324 348.083435 
L 434.982238 348.74963 
L 432.772706 348.688799 
L 430.066716 349.19605 
L 429.625693 349.713112 
L 429.699278 350.714858 
L 430.229095 350.934634 
L 430.745666 351.391846 
L 430.249209 351.817662 
L 429.765996 352.006041 
L 426.907929 352.471102 
L 424.257864 354.421613 
L 423.153098 354.663955 
L 422.169503 355.524417 
L 422.067955 356.259292 
L 421.757423 356.701787 
L 421.126549 356.724353 
L 419.74461 356.323066 
L 417.951082 356.311292 
L 416.655975 356.631145 
L 410.038171 359.794347 
L 407.661845 361.06002 
L 404.949968 363.640424 
L 400.378827 366.532831 
L 397.977972 368.259641 
L 397.521741 368.707042 
L 397.14253 368.731571 
L 396.390484 369.09165 
L 396.689733 369.389917 
L 397.202379 369.417389 
L 396.990943 370.42306 
L 396.036782 371.11084 
L 394.244726 372.917123 
L 393.845892 372.784669 
L 394.413483 371.845716 
L 393.533889 371.810395 
L 392.2378 371.466014 
L 391.675115 371.854546 
L 391.985156 372.784669 
L 391.498019 373.183013 
L 390.613519 373.228145 
L 389.811436 373.118257 
L 388.929879 372.437345 
L 389.327242 373.67064 
L 391.187487 373.969889 
L 391.96259 374.260307 
L 392.251045 374.734198 
L 390.804351 376.929994 
L 389.592641 377.215507 
L 389.459696 377.525548 
L 390.12442 377.523585 
L 390.491367 378.130912 
L 390.058193 380.581805 
L 389.459696 381.047848 
L 389.11041 381.059622 
L 388.763576 381.478569 
L 389.241883 382.279181 
L 389.734907 382.862961 
L 389.66917 383.995199 
L 389.484715 384.93219 
L 389.472451 385.841708 
L 390.095967 387.601877 
L 390.319667 389.409141 
L 390.57133 390.066506 
L 390.714086 390.795495 
L 390.298573 391.477389 
L 390.535028 392.571362 
L 389.825662 394.431608 
L 390.196534 397.116994 
L 390.044457 399.632642 
L 389.766794 400.955222 
L 389.31694 401.989346 
L 388.271533 403.320755 
L 388.247495 404.653146 
L 385.997736 405.892329 
L 383.509069 407.626007 
L 381.212215 409.677575 
L 378.739737 412.569001 
L 375.852726 416.967461 
L 373.178624 423.244809 
L 369.959006 427.985687 
L 368.671257 429.697781 
L 366.930711 431.610027 
L 364.616196 433.840163 
L 361.515297 436.07128 
L 358.122016 438.059074 
L 356.895589 438.955838 
L 355.700067 440.214643 
L 355.401309 439.694638 
L 355.660331 438.835157 
L 355.495499 438.191528 
L 355.458706 437.356576 
L 356.143053 437.202537 
L 357.167365 437.732353 
L 357.689333 437.373255 
L 358.069035 437.018082 
L 359.30233 436.796344 
L 361.658053 434.613303 
L 363.406448 433.805823 
L 364.389552 432.427318 
L 364.558309 431.694405 
L 364.519063 430.207974 
L 365.076352 429.831216 
L 366.341044 429.960727 
L 366.599084 429.537854 
L 366.489197 429.068868 
L 366.735463 428.046518 
L 368.450009 427.138962 
L 369.262395 426.042045 
L 368.991109 423.246771 
L 369.305074 423.121185 
L 370.010516 423.556812 
L 370.341161 423.376282 
L 370.696825 422.150835 
L 370.526106 421.515055 
L 369.695569 421.346299 
L 366.825238 422.727747 
L 365.890209 422.670841 
L 365.735189 421.585697 
L 364.339514 421.087277 
L 363.793999 420.186589 
L 363.630639 419.56945 
L 363.146445 419.317297 
L 363.176861 420.383798 
L 363.309805 421.419884 
L 364.560762 422.626689 
L 364.256608 423.105487 
L 363.663507 423.664738 
L 363.250446 424.906863 
L 363.297051 426.517899 
L 362.961991 426.027328 
L 362.533231 425.743778 
L 362.358588 427.475494 
L 361.528051 428.137765 
L 361.265596 428.788262 
L 361.482428 429.54276 
L 361.05416 430.063747 
L 358.938327 431.462855 
L 356.829362 432.418488 
L 356.370678 432.869813 
L 356.145506 433.936315 
L 355.8232 435.03225 
L 354.890134 435.995732 
L 354.149372 437.910921 
L 354.169485 438.735081 
L 354.415261 439.949735 
L 354.814096 440.746422 
L 354.183221 441.279182 
L 353.335024 442.313306 
L 352.66147 443.478903 
L 350.985189 447.854797 
L 349.540947 450.492107 
L 348.429313 451.784271 
L 346.842316 453.146096 
L 342.323666 456.564396 
L 342.052871 456.515338 
L 341.389619 456.239637 
L 340.834292 455.911936 
L 340.708706 455.693141 
L 340.645422 455.36544 
L 340.690174 454.61156 
L 340.752857 454.66098 
L 340.938293 454.706112 
L 341.118823 454.60113 
L 341.486261 454.450034 
L 341.652565 453.857424 
L 341.499016 452.630016 
L 341.661395 451.473249 
L 341.942002 450.702071 
L 342.259892 450.308633 
L 342.513026 450.063348 
L 342.775972 449.964252 
L 343.11741 449.925007 
L 343.760548 449.665004 
L 344.305573 448.670126 
L 344.731389 447.55653 
L 345.36815 447.180752 
L 345.894042 447.085581 
L 346.290914 447.322037 
L 346.664239 447.712531 
L 347.102809 448.20114 
L 347.582097 448.274726 
L 347.977007 448.172687 
L 348.33169 447.859703 
L 348.747203 447.216073 
L 349.125924 446.665653 
L 349.469815 446.070099 
L 349.89514 445.472584 
L 350.082538 444.941786 
L 350.152199 444.484574 
L 350.133557 444.075437 
L 349.80978 443.618225 
L 349.530645 443.019728 
L 349.161245 442.558592 
L 349.161245 441.445976 
L 349.048414 441.110426 
L 348.857091 441.055482 
L 348.611806 441.244842 
L 348.261047 441.705979 
L 348.134971 442.182814 
L 348.018215 442.553686 
L 347.952969 442.985388 
L 347.281377 443.401393 
L 346.460652 443.766378 
L 346.136384 444.425705 
L 345.750305 445.069334 
L 345.127279 445.28911 
L 344.651916 445.58149 
L 344.353878 445.809887 
L 343.723756 445.344054 
L 342.402648 444.899597 
L 341.130106 444.116645 
L 340.001793 443.109993 
L 339.480316 442.062134 
L 339.00299 440.932839 
L 338.546269 440.04 
L 338.394192 439.631845 
L 337.948263 439.462107 
L 337.240859 439.005876 
L 336.797873 438.582023 
L 336.149338 438.338699 
L 334.9911 438.071829 
L 333.784295 437.605786 
L 332.283638 436.499058 
L 331.200948 435.270668 
L 330.666226 434.459263 
L 330.096182 433.888239 
L 326.998226 432.94438 
L 325.591268 431.817048 
L 325.037413 432.168296 
L 324.20982 431.822934 
L 323.394981 431.280363 
L 323.150677 430.864359 
L 322.805805 430.437562 
L 322.482029 429.947972 
L 322.275498 429.478005 
L 321.436622 428.656789 
L 320.353931 427.767874 
L 319.894757 427.514739 
L 319.652415 427.588325 
L 319.417922 427.929762 
L 319.269769 428.259426 
L 318.860633 428.47724 
L 318.354364 428.884414 
L 317.837792 429.382834 
L 317.175521 429.713479 
L 316.388645 429.82631 
L 315.859319 429.809631 
L 315.750412 429.613402 
L 315.720978 428.93249 
L 315.916716 427.378361 
L 315.45607 426.779864 
L 314.842856 426.138197 
L 314.136434 425.280679 
L 311.815051 423.462622 
L 308.655774 420.844935 
L 307.540215 420.044323 
L 306.489902 419.982511 
L 305.530836 420.071795 
L 304.648789 420.418138 
L 303.981612 421.627886 
L 303.70493 421.814303 
L 302.003139 421.786832 
L 300.310669 421.591584 
L 299.742097 420.853765 
L 300.194404 420.373006 
L 301.788269 419.307485 
L 302.669825 418.358721 
L 302.838582 417.525731 
L 303.602401 416.778101 
L 304.961773 416.11583 
L 306.476166 414.89627 
L 308.14558 413.118441 
L 309.15959 411.806654 
L 309.518198 410.959928 
L 310.172619 410.307469 
L 311.124327 409.849275 
L 311.955355 408.892662 
L 312.667664 407.437628 
L 313.640466 406.27988 
L 314.872781 405.421381 
L 315.562524 404.709072 
L 315.709204 404.143934 
L 316.058 403.781892 
L 316.607931 403.623928 
L 316.874311 403.326642 
L 316.85665 402.888072 
L 317.006274 402.590786 
L 317.324164 402.431841 
L 317.854962 402.487766 
L 318.599159 402.75758 
L 319.048522 402.707542 
L 319.20207 402.338632 
L 319.005842 401.91576 
L 318.458365 401.439906 
L 318.664404 400.923825 
L 320.102268 400.088873 
L 321.164355 399.770983 
L 321.835946 399.25294 
L 322.472217 398.430743 
L 323.504379 397.856775 
L 324.933412 397.53496 
L 325.311642 397.224919 
L 325.260132 396.826576 
L 325.552022 396.540082 
L 326.396295 396.333061 
L 326.85547 395.94551 
L 326.930036 395.376448 
L 327.201813 394.846631 
L 327.670308 394.358022 
L 328.192766 394.176511 
L 328.769187 394.301116 
L 329.310287 394.116661 
L 329.817047 393.620203 
L 330.424865 393.388654 
L 331.13423 393.421031 
L 331.497744 393.312125 
L 332.71485 393.081556 
L 333.386442 392.664571 
L 333.938335 391.73641 
L 334.428415 391.376331 
L 334.856684 391.586296 
L 335.596955 391.275274 
L 336.649721 390.445227 
L 336.847912 390.429529 
L 337.625957 390.042959 
L 338.426569 388.608529 
L 338.840611 387.648972 
L 338.741516 386.864058 
L 338.47857 386.300883 
L 338.566382 385.475742 
L 338.831781 383.23187 
L 338.904386 382.314502 
L 339.330201 381.674798 
L 339.302729 381.04098 
L 338.542835 379.620286 
L 337.776072 378.373254 
L 337.364483 376.25595 
L 337.093688 375.452394 
L 336.454474 375.239487 
L 335.876581 374.538951 
L 335.146121 374.47812 
L 334.80223 374.210268 
L 334.447057 373.987549 
L 333.929014 374.053286 
L 333.4875 374.463403 
L 332.665793 374.47812 
L 332.148731 374.646877 
L 331.539933 375.011862 
L 330.961549 374.844086 
L 330.596565 374.524234 
L 329.812632 374.520309 
L 329.866104 373.079993 
L 331.246571 370.945027 
L 331.617443 369.95113 
L 331.437894 369.387955 
L 331.850955 367.401142 
L 332.856135 363.991673 
L 333.176968 361.760556 
L 332.812474 360.70779 
L 332.802663 359.972915 
L 333.318743 359.346946 
L 333.570897 359.160529 
L 332.274808 358.39622 
L 331.577216 357.698627 
L 330.679471 357.200207 
L 329.715989 356.801864 
L 329.250928 356.967677 
L 328.752508 357.200207 
L 327.789026 357.565192 
L 326.692109 358.197048 
L 326.127462 358.429578 
L 325.130622 358.662109 
L 324.000837 358.861281 
L 323.070714 358.728827 
L 322.273045 358.595391 
L 321.774625 358.197048 
L 321.508736 357.332661 
L 321.508736 356.601711 
L 321.342923 355.538152 
L 320.744426 354.940637 
L 320.545254 354.475576 
L 320.511895 353.910438 
L 320.578613 353.279563 
L 320.744426 352.814502 
L 320.64484 352.249364 
L 320.37895 351.850039 
L 320.445668 351.152447 
L 320.312723 350.188966 
L 319.913889 349.590469 
L 319.714227 348.892877 
L 319.714227 348.195285 
L 319.415469 347.497693 
L 319.38211 346.733383 
L 319.647999 346.035791 
L 319.747585 345.338199 
L 319.448828 344.839779 
L 318.88369 344.54053 
L 318.451987 343.742862 
L 318.38527 342.712663 
L 317.920208 342.147525 
L 317.421788 341.682463 
L 316.857141 341.682463 
L 315.992754 341.416574 
L 315.228445 341.449933 
L 313.999074 341.416574 
L 313.434426 341.250761 
L 313.135669 340.884795 
L 312.371359 340.386375 
L 311.939166 339.522969 
L 311.407387 339.357156 
L 310.643568 339.622065 
L 310.377678 339.954672 
L 310.07843 340.419733 
L 309.546651 340.951512 
L 308.849059 340.918154 
L 308.118108 341.217402 
L 307.420025 341.250761 
L 306.489902 341.317478 
L 305.559289 341.051589 
L 304.429504 340.752341 
L 303.466022 340.553169 
L 302.535409 340.752341 
L 301.904535 340.585546 
L 301.073507 340.486451 
L 300.143384 340.419733 
L 299.412434 339.887954 
L 298.614765 339.588706 
L 298.183062 339.688783 
L 297.617925 340.02139 
L 297.019918 339.954672 
L 296.255609 339.688783 
L 295.95636 339.057908 
L 296.023078 338.658583 
L 296.189382 338.26024 
L 296.488139 337.695102 
L 296.321836 337.096605 
L 296.388554 336.565807 
L 296.521498 336.099765 
L 296.654443 335.568967 
L 296.554367 335.070546 
L 296.521498 334.538767 
L 296.454781 334.040347 
L 296.355195 333.508568 
L 296.754029 332.744258 
L 297.086146 332.112403 
L 296.886974 331.581605 
L 296.953201 331.215639 
L 297.21909 330.617142 
L 297.551207 329.887173 
L 297.518339 328.524366 
L 297.21909 327.726698 
L 296.895313 327.510846 
L 296.812407 327.269485 
L 296.96988 326.954539 
L 296.79818 326.629781 
L 296.731953 326.298155 
L 296.903653 326.007737 
L 296.665236 325.433768 
L 296.189382 325.267955 
L 296.023078 325.102142 
L 295.856774 324.470287 
L 295.72383 323.739336 
L 295.790057 323.174198 
L 295.557526 322.675778 
L 295.22541 322.377511 
L 294.893293 321.845732 
L 294.560686 321.446407 
L 294.428232 320.88225 
L 294.207475 320.15228 
L 294.870727 320.015902 
L 295.133182 319.606765 
L 295.600206 319.05242 
L 296.212929 318.907211 
L 296.941918 318.703133 
L 297.211732 318.293016 
L 295.511903 316.817378 
L 294.491515 315.931407 
L 295.089031 314.733432 
L 296.097154 312.713261 
L 297.073391 310.756863 
L 297.818078 309.264546 
L 298.008419 308.988845 
L 298.657935 308.893674 
L 298.539217 308.123478 
L 298.516651 307.619171 
L 297.99174 307.589737 
L 298.575519 305.770699 
L 299.437943 303.176559 
L 300.092365 301.21035 
L 300.302329 300.880687 
L 300.774259 300.788459 
L 300.879732 300.560834 
L 300.313122 300.243925 
L 299.967269 299.632674 
L 299.21179 297.875448 
L 298.021174 295.106665 
L 297.933852 294.11473 
L 297.495772 293.502498 
L 296.766784 293.705594 
L 295.903869 293.510347 
L 293.747319 292.005275 
L 292.318776 291.191908 
L 291.834092 290.711148 
L 291.619222 289.166831 
L 291.192915 287.460625 
L 291.008951 285.350188 
L 291.084499 284.842937 
L 292.292285 283.241713 
L 292.288361 282.432271 
L 292.39089 281.725849 
L 292.340361 281.167579 
L 292.041113 281.15973 
L 291.555938 281.404034 
L 290.823515 281.592413 
L 290.408002 281.608112 
L 286.194977 281.457016 
L 281.402589 281.284335 
L 277.415227 281.141088 
L 273.954739 281.016483 
L 273.837983 279.637978 
L 273.642735 277.325426 
L 273.504394 275.684957 
L 273.284128 273.081987 
L 271.896302 271.46114 
L 270.389268 269.701952 
L 269.859451 269.251608 
L 271.679961 269.195683 
L 272.972615 269.155456 
L 272.716047 264.431256 
L 272.322609 263.948535 
L 271.974303 262.42384 
L 271.737848 261.560435 
L 271.095691 260.859899 
L 270.949991 260.073023 
L 271.067237 259.547131 
L 271.417996 259.221392 
L 271.650036 258.409987 
L 271.475393 257.593677 
L 271.095691 256.834273 
L 270.629157 256.105284 
L 269.73779 255.657883 
L 268.461324 254.844517 
L 266.530927 253.810393 
L 264.898306 253.090235 
L 264.374376 253.178537 
L 261.491781 253.460125 
L 260.532224 253.607296 
L 259.888104 253.442465 
L 257.735478 253.450314 
L 256.889734 252.895968 
L 256.180368 252.251358 
L 254.672843 250.601077 
L 254.439331 249.774955 
L 253.856042 249.51299 
L 252.973505 249.613067 
L 252.080175 249.500235 
L 250.345025 248.815398 
L 248.722216 248.112901 
L 247.934359 248.142335 
L 247.234314 247.704745 
L 246.001018 246.633338 
L 245.425578 246.216353 
L 245.162632 245.662007 
L 244.900177 244.845697 
L 244.4047 244.670073 
L 243.763033 244.816263 
L 243.068875 245.235211 
L 242.095091 244.955585 
L 240.903985 244.203049 
L 240.133788 243.615345 
L 239.694237 243.336701 
L 238.660113 242.925602 
L 237.660329 242.839262 
L 236.148389 243.444626 
L 234.91215 243.197378 
L 232.968998 242.978584 
L 231.306453 242.540994 
L 230.701088 241.399926 
L 230.372896 240.644447 
L 229.385867 240.171536 
L 228.5985 239.594625 
L 227.660038 238.719446 
L 227.193505 238.427065 
L 226.344817 238.182761 
L 225.559412 237.873701 
L 225.472091 237.319356 
L 225.180201 236.589386 
L 225.111521 236.408856 
L 224.577289 235.522885 
L 224.327589 235.461073 
L 224.050906 235.634735 
L 223.842904 235.763264 
L 223.618223 235.606282 
L 223.577996 235.2099 
L 223.722224 234.575101 
L 223.412673 233.908906 
L 222.648364 233.210333 
L 222.249039 232.488212 
L 222.214208 231.740582 
L 222.044471 231.24118 
L 221.738354 230.989027 
L 221.567145 230.550456 
L 221.529862 229.927431 
L 221.751109 229.184706 
L 222.231378 228.325226 
L 222.128358 226.998722 
L 221.44254 225.2101 
L 221.063819 223.918917 
L 220.992196 223.127135 
L 221.094725 222.540412 
L 221.51122 221.970368 
L 222.338813 220.57126 
L 222.484513 219.503777 
L 222.223529 218.299916 
L 222.187718 217.381567 
L 222.376587 216.749711 
L 222.089603 215.921627 
L 221.504352 215.139657 
L 221.096197 215.120034 
L 220.541361 215.333923 
L 219.871241 215.994232 
L 219.083384 216.110988 
L 218.383339 215.702832 
L 216.19392 215.873551 
L 212.789357 216.281706 
L 211.426551 216.704579 
L 210.625939 216.885109 
L 209.657061 217.02345 
L 208.103422 217.782854 
L 204.2701 220.731186 
L 203.476847 221.157983 
L 202.572724 221.216851 
L 202.047813 221.625006 
L 201.201578 221.94584 
L 199.539033 223.112418 
L 198.692797 224.046465 
L 198.138943 224.89221 
L 197.496785 224.921644 
L 197.001308 224.688132 
L 195.427066 224.804888 
L 194.62351 225.093344 
L 193.749803 225.916522 
L 192.665151 227.403934 
L 192.21775 227.826806 
L 191.345024 228.264395 
L 190.336901 228.626437 
L 189.087907 229.172933 
L 188.528165 229.209235 
L 188.034651 229.306368 
L 187.608344 229.057158 
L 187.466079 228.524398 
L 186.820487 228.187866 
L 185.280094 228.01911 
L 183.000901 227.630577 
L 180.649594 227.555029 
L 179.483506 227.591332 
L 178.52493 227.614879 
L 176.859442 227.406877 
L 175.648222 227.371556 
L 174.583682 227.89941 
L 173.038874 228.554813 
L 172.332452 228.721607 
L 171.813918 228.746136 
L 171.30863 228.664701 
L 170.719945 228.325226 
L 169.892351 227.542275 
L 169.256571 227.843485 
L 168.796416 228.179036 
L 168.804265 226.476754 
L 168.816529 223.916954 
L 168.82634 221.659346 
L 168.83468 219.853064 
L 168.844001 217.74557 
L 168.850869 216.258159 
L 169.284043 215.693021 
L 169.550914 215.061166 
L 169.23008 214.216402 
L 169.299741 213.442281 
L 169.52148 212.903634 
L 169.813369 212.377742 
L 169.142268 212.640688 
L 168.850869 212.786878 
L 168.493733 213.186203 
L 167.629347 213.725831 
L 167.049001 214.264478 
L 166.363183 214.70403 
L 165.496835 215.67536 
L 164.783544 216.208121 
L 164.044744 216.546615 
L 162.81243 217.687683 
L 161.793023 217.914327 
L 159.094392 218.089951 
L 156.286853 218.085046 
L 153.719695 218.081121 
L 153.331653 218.066404 
L 153.356672 217.12647 
L 153.419466 216.462236 
L 152.544287 215.761701 
L 152.485418 214.899277 
L 152.252397 214.303724 
L 151.960507 213.574735 
L 151.347784 213.107712 
L 150.486832 212.927181 
L 149.073006 212.523932 
L 146.975324 212.104984 
L 144.970851 212.07555 
L 143.005132 212.115777 
L 144.206541 210.651913 
L 145.406968 209.18903 
L 145.370175 207.913545 
L 144.400807 206.804854 
L 143.877858 206.11413 
L 143.068416 205.162423 
L 142.070594 204.506038 
L 141.525079 203.631841 
L 141.575608 203.101043 
L 141.488287 202.750775 
L 141.109075 202.546698 
L 140.729864 202.225864 
L 140.204953 201.875596 
L 139.592229 201.409554 
L 139.592229 200.94253 
L 139.358718 200.446072 
L 138.979506 199.863274 
L 138.979506 199.39625 
L 138.629729 198.667262 
L 138.250518 198.142351 
L 137.871306 197.792083 
L 137.316961 197.296606 
L 137.345905 196.88747 
L 137.75455 196.683392 
L 137.929684 196.21735 
L 137.871306 195.750326 
L 137.404283 195.458927 
L 136.849937 195.312737 
L 136.120949 194.466992 
L 135.596038 194.029403 
L 135.24577 193.766457 
L 135.041692 193.475057 
L 135.24577 193.27098 
L 135.479282 192.9786 
L 135.53766 192.512557 
L 135.420904 192.074968 
L 135.420904 191.695266 
L 135.771171 191.57851 
L 136.149892 191.637378 
L 136.529104 191.403866 
L 137.025071 191.316545 
L 137.579416 191.257676 
L 137.871306 190.995711 
L 137.841872 190.528688 
L 137.491604 189.624075 
L 137.141827 189.245354 
L 137.025071 188.691008 
L 137.310093 187.622545 
L 137.492585 186.941632 
L 138.131309 186.21853 
L 140.086725 184.668326 
L 141.839045 183.61556 
L 142.694601 183.508616 
L 143.326456 183.118121 
L 143.729215 182.521587 
L 143.840084 181.869127 
L 143.749329 181.301046 
L 143.42408 180.460207 
L 143.034567 179.413328 
L 142.742677 178.83053 
L 143.005623 178.129995 
L 143.472647 177.1724 
L 144.425336 175.727177 
L 145.311307 174.173048 
L 145.40844 173.71878 
L 145.521762 172.770015 
L 145.930408 170.834222 
L 146.15607 169.786362 
L 146.038824 169.379188 
L 146.243883 169.027939 
L 146.797737 168.73654 
L 148.136015 168.469669 
L 149.044062 167.890795 
L 150.444152 166.802709 
L 151.611221 165.644961 
L 152.576174 165.272127 
L 154.327022 164.20072 
L 155.332693 163.520788 
L 155.727112 163.306899 
L 156.716103 162.815347 
L 158.488046 162.643647 
L 159.965155 162.467042 
L 160.799617 162.144246 
L 162.020157 162.01081 
L 162.841864 161.647788 
L 163.753836 161.637976 
L 165.4674 161.269067 
L 166.050689 160.714722 
L 166.54911 160.054413 
L 167.217267 159.489275 
L 168.000219 159.344066 
L 168.874416 159.44218 
L 169.918352 159.431388 
L 171.184516 159.255763 
L 171.797239 159.693353 
L 172.066072 160.229056 
L 172.847061 160.77359 
L 173.401406 160.743175 
L 173.955751 160.6274 
L 174.714174 161.094424 
L 175.210142 161.035555 
L 175.530975 160.77359 
L 175.592297 160.118187 
L 175.770374 159.763014 
L 176.143698 157.713408 
L 176.759365 154.33043 
L 177.318126 151.26338 
L 177.936245 147.868628 
L 178.574969 144.362026 
L 179.221541 140.811272 
L 179.752339 137.89728 
L 180.20857 135.392424 
L 180.488196 133.855956 
L 180.927257 131.843633 
L 181.098466 130.075615 
L 181.275562 129.565421 
L 181.163222 129.136662 
L 180.784501 128.527373 
L 180.788425 128.259521 
L 180.832577 127.904348 
L 180.788425 127.594307 
L 180.389591 127.262681 
L 180.07955 127.062528 
L 179.835736 126.775053 
L 179.724867 126.375728 
L 179.525695 125.977385 
L 179.436902 125.556475 
L 179.148937 125.223867 
L 179.060634 124.802957 
L 179.259806 124.404614 
L 179.348599 123.983704 
L 179.259806 123.584379 
L 179.148937 123.119317 
L 178.927199 122.676822 
L 178.590667 122.407008 
L 177.787112 122.106779 
L 176.97865 121.391526 
L 176.025961 120.749859 
L 174.807383 119.531281 
L 174.541493 118.95535 
L 174.537078 117.373749 
L 174.589569 115.657732 
L 174.668061 113.065554 
L 174.708287 111.746899 
L 175.396068 111.674295 
L 176.002414 111.638483 
L 176.635741 111.547237 
L 177.187634 111.456972 
L 177.693903 111.267121 
L 178.074096 111.031646 
L 178.526893 110.878098 
L 178.879613 110.932551 
L 179.232334 110.724549 
L 179.621847 110.525377 
L 180.001549 110.362508 
L 180.553442 110.226619 
L 181.069032 110.543528 
L 181.358469 110.859947 
L 181.693529 111.013986 
L 182.009947 110.977684 
L 182.22727 111.005156 
L 182.453423 111.25829 
L 182.74286 111.276441 
L 183.158865 111.231309 
L 183.547888 111.176855 
L 183.728908 111.104742 
L 183.75638 110.941381 
L 183.656794 110.661265 
L 183.520906 110.398319 
L 183.629322 109.991636 
L 183.638643 109.503027 
L 183.656794 108.879021 
L 183.349206 108.53513 
L 183.041618 107.883652 
L 182.697728 107.358741 
L 182.163987 107.00602 
L 181.666057 106.870132 
L 181.250053 107.087455 
L 180.86103 107.123267 
L 180.571593 106.924585 
L 180.101135 106.915755 
L 179.594375 106.852472 
L 179.058672 106.777414 
L 178.093228 106.91968 
L 177.748356 106.743565 
L 177.277899 106.725414 
L 176.735327 106.915265 
L 176.749063 104.410899 
L 176.762309 102.0488 
L 176.771139 100.392632 
L 177.259748 100.428443 
L 177.866093 100.130176 
L 178.765801 100.084063 
L 179.457015 99.769606 
L 179.842114 99.744587 
L 180.573065 99.898627 
L 181.334921 100.221422 
L 182.084514 100.267046 
L 184.04827 100.266555 
L 186.169009 100.265574 
L 188.527184 100.264593 
L 190.888302 100.263612 
L 192.936927 100.26263 
L 193.569764 100.281272 
L 193.200854 99.731342 
L 192.772095 99.018542 
L 192.937908 98.457329 
L 193.149835 97.892191 
L 193.396592 97.596867 
L 194.034825 97.910833 
L 194.569548 98.871861 
L 195.013514 99.595944 
L 195.446689 99.952589 
L 195.984355 99.993307 
L 196.594134 99.871645 
L 197.201461 99.57534 
L 198.238529 98.248836 
L 199.269709 97.114145 
L 199.803941 96.732972 
L 200.370551 96.382213 
L 200.79146 96.249269 
L 201.367391 96.29391 
L 201.854528 96.603951 
L 202.169475 97.14407 
L 203.322807 99.02541 
L 204.19259 100.444142 
L 204.48497 101.328641 
L 204.503612 103.488626 
L 204.449649 105.403325 
L 204.563952 105.650572 
L 204.735161 105.721215 
L 206.636124 105.272342 
L 209.218 107.592253 
L 211.124849 109.304836 
L 211.94999 109.852314 
L 212.406712 110.005372 
L 213.516383 109.891559 
L 214.834057 109.669821 
L 215.474252 109.424536 
L 216.182147 108.888341 
L 217.333026 108.143655 
L 218.269526 107.734028 
L 218.637945 107.679574 
L 219.007345 107.811047 
L 219.797655 108.255995 
L 220.229848 109.086532 
L 219.831014 110.050014 
L 219.897732 110.64802 
L 220.728269 110.615152 
L 221.392992 109.618311 
L 221.859035 108.832907 
L 222.832328 108.197617 
L 223.780111 107.290061 
L 224.441892 106.427146 
L 225.217484 105.921368 
L 226.387496 105.305701 
L 227.313204 104.929924 
L 228.181515 104.968188 
L 228.825635 104.561014 
L 229.660096 103.797195 
L 230.243876 103.183 
L 230.648106 102.964205 
L 231.460982 103.023564 
L 232.474993 102.939186 
L 233.471343 102.193518 
L 234.377427 101.291358 
L 234.857696 99.772059 
L 235.175096 98.426423 
L 235.445891 98.153665 
L 235.774574 97.938305 
L 236.162615 97.798001 
L 237.093719 97.700378 
L 238.724868 96.982672 
L 239.848766 96.255646 
L 240.91723 96.099644 
L 241.232667 95.903416 
L 241.620219 95.230843 
L 241.812032 94.046114 
L 241.667313 93.327918 
L 239.704539 93.10667 
L 238.419242 93.105689 
L 236.293107 92.920744 
L 235.281059 92.624929 
L 235.063246 92.41889 
L 235.040679 92.190774 
L 235.242795 91.678618 
L 235.440495 90.716117 
L 235.151549 89.413651 
L 234.088972 87.370423 
L 233.332511 85.363006 
L 233.232925 83.963407 
L 233.250095 82.484335 
L 233.309945 81.51791 
L 232.765411 80.761449 
L 229.825418 78.379236 
L 228.809936 77.253866 
L 228.472423 76.47533 
L 227.314185 75.038938 
L 227.607547 74.599386 
L 228.274723 74.615575 
L 228.844767 74.990371 
L 229.365753 75.78804 
L 229.74055 75.967098 
L 230.251234 75.966117 
L 232.96262 75.962683 
L 233.597419 76.098081 
L 233.981046 76.366423 
L 234.308257 76.699521 
L 234.793922 77.629644 
L 235.315399 78.084894 
L 236.388769 78.069195 
L 238.07339 78.050063 
L 239.01823 77.967157 
L 239.583858 78.226178 
L 240.285375 78.440558 
L 241.762484 77.946553 
L 242.175545 77.936251 
L 242.617059 78.153574 
L 244.209453 79.819553 
L 245.122896 80.522541 
L 245.893093 81.452173 
L 247.015029 81.457079 
L 247.943189 80.658429 
L 248.190927 77.972062 
L 248.470553 77.192545 
L 248.94052 76.974241 
L 249.49879 76.94775 
L 250.16008 76.525368 
L 250.877295 75.980834 
L 251.499339 75.797851 
L 254.086611 76.384084 
L 254.805297 76.103477 
L 257.424947 75.39313 
L 260.103465 74.481159 
L 260.85551 73.33126 
L 261.979408 73.0222 
L 262.858021 72.179399 
L 263.567878 72.268193 
L 264.642719 72.302042 
L 265.307443 72.154871 
L 265.643484 71.994944 
L 266.00945 71.598563 
L 266.613833 70.472212 
L 267.345765 70.046396 
L 268.266567 69.595071 
L 268.895479 69.062801 
L 269.413522 68.405436 
L 269.65194 67.834411 
L 269.645562 67.380142 
L 269.338956 66.50202 
L 268.967593 65.674427 
L 268.565816 65.401179 
L 268.262643 65.295706 
L 269.174614 65.103893 
L 269.927641 65.391858 
L 271.102068 65.436009 
L 271.611771 65.214271 
L 272.351062 65.323178 
L 273.290996 64.734002 
" style="fill:#efefdb;fill-opacity:0.65;stroke:#000000;stroke-opacity:0.65;stroke-width:0.5;"/>
   </g>
   <g id="PathCollection_2">
    <path clip-path="url(#p22c90f8caf)" d="M 487.6358 252.199181 
L 487.672004 252.927017 
L 487.328396 253.5171 
L 486.928274 253.428797 
L 486.772309 253.033201 
L 486.480689 252.646655 
L 486.636654 252.343777 
L 486.903328 252.172028 
L 487.6358 252.199181 
" style="fill:#efefdb;stroke:#000000;stroke-width:0.5;"/>
    <path clip-path="url(#p22c90f8caf)" d="M 490.710172 248.096192 
L 489.276907 249.145008 
L 488.883629 249.362012 
L 488.842899 248.722258 
L 489.869198 247.917599 
L 490.03874 246.965916 
L 490.576724 247.406768 
L 490.719223 247.892654 
L 490.710172 248.096192 
" style="fill:#efefdb;stroke:#000000;stroke-width:0.5;"/>
    <path clip-path="url(#p22c90f8caf)" d="M 501.029568 233.493117 
L 502.659417 233.072575 
L 502.08302 234.643702 
L 499.878982 239.128601 
L 497.179787 242.899131 
L 496.558135 244.063403 
L 494.342839 246.604316 
L 492.71299 247.829517 
L 492.256354 247.838568 
L 491.738679 247.734592 
L 491.47642 245.781334 
L 490.17892 244.59918 
L 489.808159 244.391227 
L 489.276907 245.643581 
L 488.833848 245.987079 
L 488.191887 246.061695 
L 488.876785 246.606523 
L 489.078005 247.237226 
L 488.37953 248.500839 
L 488.359221 249.649217 
L 487.113599 250.91283 
L 486.392496 251.83736 
L 486.026261 252.996997 
L 485.807049 254.07981 
L 486.351767 253.783775 
L 486.611708 254.012037 
L 486.817454 254.348913 
L 486.69085 254.846278 
L 486.290728 255.786482 
L 486.351767 258.126285 
L 486.220637 258.657427 
L 486.618552 259.233823 
L 487.041301 258.250572 
L 487.283141 258.524089 
L 486.105402 264.794912 
L 486.568771 267.615966 
L 486.742838 270.814735 
L 487.27409 273.934252 
L 487.857329 276.723737 
L 487.902585 276.947585 
L 487.097815 280.184765 
L 486.069198 283.378898 
L 485.447546 285.982947 
L 485.056475 288.795171 
L 484.665404 290.146866 
L 484.541118 291.53035 
L 484.988703 294.808149 
L 485.155926 295.429801 
L 483.90589 296.892537 
L 482.55861 297.600063 
L 481.812562 298.305382 
L 480.164721 300.938792 
L 479.99518 301.678107 
L 479.947607 301.666848 
L 474.789068 298.483974 
L 474.56533 298.169616 
L 474.341483 297.586376 
L 474.789068 296.555662 
L 474.56533 296.060504 
L 473.803498 295.567774 
L 472.815611 294.625142 
L 472.503681 293.95382 
L 471.830041 293.95382 
L 471.651449 292.563492 
L 470.530224 292.29439 
L 470.573161 291.485315 
L 470.977809 290.992365 
L 470.887409 289.692548 
L 471.382456 287.673946 
L 471.920441 287.045451 
L 473.667843 287.135961 
L 474.208146 286.686058 
L 473.803498 285.790889 
L 473.893898 284.488864 
L 474.117746 283.995914 
L 475.284115 283.772287 
L 475.32937 283.367639 
L 476.091203 282.291449 
L 477.257572 281.439327 
L 478.019405 279.420725 
L 477.302828 278.2995 
L 476.629188 278.254245 
L 475.32937 277.22331 
L 474.969868 277.268565 
L 474.296228 276.504525 
L 473.355913 276.549781 
L 471.875186 276.057051 
L 471.292056 276.280678 
L 470.887409 275.878459 
L 469.946984 275.473811 
L 469.004352 275.697438 
L 468.330712 275.114198 
L 467.704534 275.249963 
L 467.164232 275.026116 
L 466.311999 275.652403 
L 465.012182 276.102085 
L 463.262573 275.473811 
L 462.99347 273.231361 
L 458.553826 269.374737 
L 457.163609 270.001024 
L 455.682882 270.091314 
L 454.785504 269.329482 
L 453.933272 269.329482 
L 452.228807 268.610697 
L 450.750398 267.579983 
L 450.210095 267.670272 
L 447.610461 265.74196 
L 446.982076 265.023175 
L 444.201531 264.620735 
L 442.630514 265.247023 
L 442.002019 266.05411 
L 441.554434 266.1444 
L 439.402385 265.606415 
L 438.235905 265.201768 
L 437.831368 264.844583 
L 437.679818 264.492034 
L 437.867461 263.585385 
L 438.477855 261.933019 
L 438.665498 261.661708 
L 438.10036 261.390398 
L 434.872231 260.942924 
L 434.334246 260.628787 
L 433.255958 260.671613 
L 432.853629 260.942924 
L 430.834916 261.704756 
L 428.054482 263.409221 
L 427.604579 264.216088 
L 425.407275 265.427823 
L 424.152713 265.65167 
L 423.21008 266.81815 
L 421.774608 267.670272 
L 420.877231 267.625017 
L 419.846406 268.701207 
L 419.263166 269.508074 
L 418.725181 269.731922 
L 417.111117 269.553329 
L 416.706469 270.136569 
L 415.630389 270.765064 
L 416.616069 268.117967 
L 416.123229 266.951487 
L 417.065862 265.74196 
L 417.244454 265.158941 
L 416.751724 263.587813 
L 416.751724 262.91627 
L 417.154054 261.750011 
L 416.258884 261.211806 
L 415.989892 260.762124 
L 415.092405 260.045547 
L 414.642612 258.969356 
L 414.149772 258.205316 
L 413.745125 256.905499 
L 413.656932 254.751352 
L 414.509165 252.2398 
L 415.406652 251.701815 
L 415.539989 250.716136 
L 414.597357 250.356743 
L 414.55442 249.773503 
L 414.866349 248.428431 
L 415.630389 247.935701 
L 415.494844 247.307206 
L 414.016435 246.140726 
L 414.016435 245.288604 
L 414.778267 244.167379 
L 414.778267 243.179492 
L 413.20714 242.372404 
L 412.892892 241.565538 
L 412.983292 239.413378 
L 413.118947 239.053985 
L 413.88078 238.60629 
L 414.240172 238.111353 
L 415.585244 237.394776 
L 415.361397 236.766281 
L 414.778267 236.452143 
L 413.88078 236.542433 
L 413.611787 235.780601 
L 413.926035 235.376174 
L 415.316252 234.747679 
L 415.539989 234.119184 
L 414.46402 233.535944 
L 412.085915 233.088469 
L 411.459738 232.236127 
L 410.831243 231.876734 
L 410.650443 231.250667 
L 411.05509 230.441372 
L 411.72873 229.86034 
L 412.669155 227.751228 
L 413.88078 227.213243 
L 414.016435 226.899106 
L 413.342795 225.642115 
L 415.494844 223.894824 
L 415.989892 223.759058 
L 417.782439 222.728344 
L 418.815581 221.338016 
L 420.339136 221.383271 
L 421.236623 222.190359 
L 421.684208 222.906936 
L 421.998456 224.251788 
L 423.255336 225.86817 
L 425.990515 227.03465 
L 427.111739 226.675258 
L 427.918827 226.85385 
L 428.592467 226.630003 
L 428.906715 225.913426 
L 429.982684 225.418268 
L 430.251676 224.925538 
L 431.058654 224.342298 
L 432.270389 223.937651 
L 433.346358 224.073416 
L 434.288991 224.342298 
L 435.274671 223.937651 
L 436.531551 222.592578 
L 437.338528 222.368951 
L 438.459752 220.081247 
L 438.8644 219.721854 
L 438.952592 219.095567 
L 439.44764 218.376782 
L 439.35724 217.524439 
L 439.671377 216.043822 
L 439.221585 215.505837 
L 438.638345 213.668036 
L 438.19076 212.994285 
L 438.369352 212.277708 
L 439.535722 212.4563 
L 439.895225 211.649213 
L 440.43321 211.380331 
L 441.106849 211.604178 
L 442.002019 211.020938 
L 442.347945 211.353178 
L 442.720914 212.142163 
L 444.649116 212.187418 
L 445.232356 211.739723 
L 446.084588 211.963571 
L 446.220244 212.366011 
L 447.149299 212.74792 
L 447.205813 213.175085 
L 448.01279 213.487236 
L 449.000678 213.218133 
L 450.34575 213.668036 
L 450.793335 212.860948 
L 451.645567 212.994285 
L 452.228807 212.096908 
L 453.440432 211.066194 
L 455.054497 210.930428 
L 456.130466 210.080514 
L 457.387346 210.123341 
L 458.060986 210.527988 
L 458.598971 209.721121 
L 459.227466 209.316474 
L 459.227466 207.792809 
L 460.482028 207.612009 
L 461.020013 207.702299 
L 461.603253 207.342906 
L 461.9175 206.626329 
L 462.59114 205.819462 
L 462.905388 205.100457 
L 463.352973 205.324304 
L 465.012182 205.055202 
L 465.550167 205.145712 
L 465.595422 205.728952 
L 466.569733 205.785466 
L 466.807047 206.131392 
L 467.704534 206.536039 
L 467.704534 208.330794 
L 468.061719 208.914034 
L 468.106864 209.497274 
L 469.587592 210.168596 
L 469.720929 211.425586 
L 469.182944 212.232453 
L 469.766184 212.725403 
L 470.982334 212.605532 
L 472.510414 211.970414 
L 473.443995 210.926013 
L 473.912 209.438552 
L 474.524601 209.002116 
L 475.876406 208.868779 
L 476.60656 208.5659 
L 477.171698 208.2043 
L 477.569502 207.783758 
L 477.784299 207.21862 
L 477.815977 206.508886 
L 478.31555 206.063399 
L 479.285336 205.884806 
L 479.79396 205.464485 
L 479.84363 204.797578 
L 480.666502 204.160032 
L 482.264672 203.554275 
L 483.361062 203.61984 
L 484.125101 204.367985 
L 485.716539 205.118559 
L 488.361428 205.975317 
L 489.663453 206.775561 
L 490.041058 206.938259 
L 490.529262 206.938259 
L 490.947486 206.581074 
L 491.282043 206.285039 
L 491.679957 206.323451 
L 491.887911 206.753044 
L 491.906013 207.575805 
L 492.40106 208.018864 
L 493.375371 208.084429 
L 493.793485 208.414461 
L 493.660148 209.008959 
L 493.906512 210.028415 
L 494.528164 211.475256 
L 496.994461 213.127622 
L 496.318614 214.070475 
L 496.813661 214.474902 
L 496.454159 215.28199 
L 497.125591 216.762607 
L 497.753976 217.165047 
L 497.753976 217.524439 
L 498.965711 218.826464 
L 498.920456 221.111961 
L 498.382471 222.278441 
L 498.518126 223.535211 
L 498.920456 224.342298 
L 498.606208 224.835028 
L 497.037398 225.599288 
L 496.632751 225.599288 
L 495.647181 225.149386 
L 494.840204 225.239675 
L 494.299901 226.315866 
L 494.390301 227.03465 
L 494.973541 227.884565 
L 495.647181 228.379723 
L 496.140021 229.769829 
L 496.946998 230.486407 
L 496.678006 231.652887 
L 497.082654 232.102789 
L 498.246816 232.505229 
L 498.787118 233.357351 
L 500.177335 233.671709 
L 500.446328 233.312096 
L 501.029568 233.493117 
" style="fill:#efefdb;stroke:#000000;stroke-width:0.5;"/>
   </g>
   <g id="PathCollection_3">
    <path clip-path="url(#p22c90f8caf)" d="M 486.703636 298.404284 
L 486.703636 278.310493 
L 471.633293 278.310493 
L 471.633293 298.404284 
L 486.703636 298.404284 
" style="fill:none;stroke:#ff0000;stroke-width:2;"/>
   </g>
   <g id="text_1">
    <!-- Brazil -->
    <defs>
     <path d="M 19.671875 34.8125 
L 19.671875 8.109375 
L 35.5 8.109375 
Q 43.453125 8.109375 47.28125 11.40625 
Q 51.125 14.703125 51.125 21.484375 
Q 51.125 28.328125 47.28125 31.5625 
Q 43.453125 34.8125 35.5 34.8125 
z
M 19.671875 64.796875 
L 19.671875 42.828125 
L 34.28125 42.828125 
Q 41.5 42.828125 45.03125 45.53125 
Q 48.578125 48.25 48.578125 53.8125 
Q 48.578125 59.328125 45.03125 62.0625 
Q 41.5 64.796875 34.28125 64.796875 
z
M 9.8125 72.90625 
L 35.015625 72.90625 
Q 46.296875 72.90625 52.390625 68.21875 
Q 58.5 63.53125 58.5 54.890625 
Q 58.5 48.1875 55.375 44.234375 
Q 52.25 40.28125 46.1875 39.3125 
Q 53.46875 37.75 57.5 32.78125 
Q 61.53125 27.828125 61.53125 20.40625 
Q 61.53125 10.640625 54.890625 5.3125 
Q 48.25 0 35.984375 0 
L 9.8125 0 
z
" id="DejaVuSans-42"/>
     <path d="M 41.109375 46.296875 
Q 39.59375 47.171875 37.8125 47.578125 
Q 36.03125 48 33.890625 48 
Q 26.265625 48 22.1875 43.046875 
Q 18.109375 38.09375 18.109375 28.8125 
L 18.109375 0 
L 9.078125 0 
L 9.078125 54.6875 
L 18.109375 54.6875 
L 18.109375 46.1875 
Q 20.953125 51.171875 25.484375 53.578125 
Q 30.03125 56 36.53125 56 
Q 37.453125 56 38.578125 55.875 
Q 39.703125 55.765625 41.0625 55.515625 
z
" id="DejaVuSans-72"/>
     <path d="M 34.28125 27.484375 
Q 23.390625 27.484375 19.1875 25 
Q 14.984375 22.515625 14.984375 16.5 
Q 14.984375 11.71875 18.140625 8.90625 
Q 21.296875 6.109375 26.703125 6.109375 
Q 34.1875 6.109375 38.703125 11.40625 
Q 43.21875 16.703125 43.21875 25.484375 
L 43.21875 27.484375 
z
M 52.203125 31.203125 
L 52.203125 0 
L 43.21875 0 
L 43.21875 8.296875 
Q 40.140625 3.328125 35.546875 0.953125 
Q 30.953125 -1.421875 24.3125 -1.421875 
Q 15.921875 -1.421875 10.953125 3.296875 
Q 6 8.015625 6 15.921875 
Q 6 25.140625 12.171875 29.828125 
Q 18.359375 34.515625 30.609375 34.515625 
L 43.21875 34.515625 
L 43.21875 35.40625 
Q 43.21875 41.609375 39.140625 45 
Q 35.0625 48.390625 27.6875 48.390625 
Q 23 48.390625 18.546875 47.265625 
Q 14.109375 46.140625 10.015625 43.890625 
L 10.015625 52.203125 
Q 14.9375 54.109375 19.578125 55.046875 
Q 24.21875 56 28.609375 56 
Q 40.484375 56 46.34375 49.84375 
Q 52.203125 43.703125 52.203125 31.203125 
z
" id="DejaVuSans-61"/>
     <path d="M 5.515625 54.6875 
L 48.1875 54.6875 
L 48.1875 46.484375 
L 14.40625 7.171875 
L 48.1875 7.171875 
L 48.1875 0 
L 4.296875 0 
L 4.296875 8.203125 
L 38.09375 47.515625 
L 5.515625 47.515625 
z
" id="DejaVuSans-7a"/>
     <path d="M 9.421875 54.6875 
L 18.40625 54.6875 
L 18.40625 0 
L 9.421875 0 
z
M 9.421875 75.984375 
L 18.40625 75.984375 
L 18.40625 64.59375 
L 9.421875 64.59375 
z
" id="DejaVuSans-69"/>
     <path d="M 9.421875 75.984375 
L 18.40625 75.984375 
L 18.40625 0 
L 9.421875 0 
z
" id="DejaVuSans-6c"/>
    </defs>
    <g transform="translate(325.953309 218.02912)scale(0.2 -0.2)">
     <use xlink:href="#DejaVuSans-42"/>
     <use x="68.603516" xlink:href="#DejaVuSans-72"/>
     <use x="109.716797" xlink:href="#DejaVuSans-61"/>
     <use x="170.996094" xlink:href="#DejaVuSans-7a"/>
     <use x="223.486328" xlink:href="#DejaVuSans-69"/>
     <use x="251.269531" xlink:href="#DejaVuSans-6c"/>
    </g>
   </g>
   <g id="text_2">
    <!-- Bahia -->
    <defs>
     <path d="M 54.890625 33.015625 
L 54.890625 0 
L 45.90625 0 
L 45.90625 32.71875 
Q 45.90625 40.484375 42.875 44.328125 
Q 39.84375 48.1875 33.796875 48.1875 
Q 26.515625 48.1875 22.3125 43.546875 
Q 18.109375 38.921875 18.109375 30.90625 
L 18.109375 0 
L 9.078125 0 
L 9.078125 75.984375 
L 18.109375 75.984375 
L 18.109375 46.1875 
Q 21.34375 51.125 25.703125 53.5625 
Q 30.078125 56 35.796875 56 
Q 45.21875 56 50.046875 50.171875 
Q 54.890625 44.34375 54.890625 33.015625 
z
" id="DejaVuSans-68"/>
    </defs>
    <g transform="translate(436.469159 243.146359)scale(0.16 -0.16)">
     <use xlink:href="#DejaVuSans-42"/>
     <use x="68.603516" xlink:href="#DejaVuSans-61"/>
     <use x="129.882812" xlink:href="#DejaVuSans-68"/>
     <use x="193.261719" xlink:href="#DejaVuSans-69"/>
     <use x="221.044922" xlink:href="#DejaVuSans-61"/>
    </g>
   </g>
  </g>
 </g>
 <defs>
  <clipPath id="p22c90f8caf">
   <rect height="407.7" width="393.761944" x="135.219028" y="64.8"/>
  </clipPath>
 </defs>
</svg>
