<?xml version="1.0" encoding="utf-8" standalone="no"?>
<!DOCTYPE svg PUBLIC "-//W3C//DTD SVG 1.1//EN"
  "http://www.w3.org/Graphics/SVG/1.1/DTD/svg11.dtd">
<!-- Created with matplotlib (http://matplotlib.org/) -->
<svg height="504pt" version="1.1" viewBox="0 0 360 504" width="360pt" xmlns="http://www.w3.org/2000/svg" xmlns:xlink="http://www.w3.org/1999/xlink">
 <defs>
  <style type="text/css">
*{stroke-linecap:butt;stroke-linejoin:round;}
  </style>
 </defs>
 <g id="figure_1">
  <g id="patch_1">
   <path d="M 0 504 
L 360 504 
L 360 0 
L 0 0 
z
" style="fill:none;"/>
  </g>
  <g id="axes_1">
   <g id="patch_2">
    <path d="M 45 441 
L 324 441 
L 324 60.48 
L 45 60.48 
z
" style="fill:none;"/>
   </g>
   <g id="patch_3">
    <path clip-path="url(#p56c4b8253f)" d="M 45 435.993158 
L 45 435.993158 
L 45 425.979474 
L 45 425.979474 
z
" style="fill:#b22222;"/>
   </g>
   <g id="patch_4">
    <path clip-path="url(#p56c4b8253f)" d="M 45 415.965789 
L 45 415.965789 
L 45 405.952105 
L 45 405.952105 
z
" style="fill:#b22222;"/>
   </g>
   <g id="patch_5">
    <path clip-path="url(#p56c4b8253f)" d="M 45 395.938421 
L 45 395.938421 
L 45 385.924737 
L 45 385.924737 
z
" style="fill:#b22222;"/>
   </g>
   <g id="patch_6">
    <path clip-path="url(#p56c4b8253f)" d="M 45 375.911053 
L 45 375.911053 
L 45 365.897368 
L 45 365.897368 
z
" style="fill:#b22222;"/>
   </g>
   <g id="patch_7">
    <path clip-path="url(#p56c4b8253f)" d="M 45 355.883684 
L 45 355.883684 
L 45 345.87 
L 45 345.87 
z
" style="fill:#b22222;"/>
   </g>
   <g id="patch_8">
    <path clip-path="url(#p56c4b8253f)" d="M 45 335.856316 
L 77.211818 335.856316 
L 77.211818 325.842632 
L 45 325.842632 
z
" style="fill:#b22222;"/>
   </g>
   <g id="patch_9">
    <path clip-path="url(#p56c4b8253f)" d="M 45 315.828947 
L 114.445636 315.828947 
L 114.445636 305.815263 
L 45 305.815263 
z
" style="fill:#b22222;"/>
   </g>
   <g id="patch_10">
    <path clip-path="url(#p56c4b8253f)" d="M 45 295.801579 
L 52.609091 295.801579 
L 52.609091 285.787895 
L 45 285.787895 
z
" style="fill:#b22222;"/>
   </g>
   <g id="patch_11">
    <path clip-path="url(#p56c4b8253f)" d="M 45 275.774211 
L 180.441818 275.774211 
L 180.441818 265.760526 
L 45 265.760526 
z
" style="fill:#b22222;"/>
   </g>
   <g id="patch_12">
    <path clip-path="url(#p56c4b8253f)" d="M 45 255.746842 
L 45 255.746842 
L 45 245.733158 
L 45 245.733158 
z
" style="fill:#b22222;"/>
   </g>
   <g id="patch_13">
    <path clip-path="url(#p56c4b8253f)" d="M 45 235.719474 
L 62.298 235.719474 
L 62.298 225.705789 
L 45 225.705789 
z
" style="fill:#b22222;"/>
   </g>
   <g id="patch_14">
    <path clip-path="url(#p56c4b8253f)" d="M 45 215.692105 
L 52.406182 215.692105 
L 52.406182 205.678421 
L 45 205.678421 
z
" style="fill:#b22222;"/>
   </g>
   <g id="patch_15">
    <path clip-path="url(#p56c4b8253f)" d="M 45 195.664737 
L 45 195.664737 
L 45 185.651053 
L 45 185.651053 
z
" style="fill:#b22222;"/>
   </g>
   <g id="patch_16">
    <path clip-path="url(#p56c4b8253f)" d="M 45 175.637368 
L 45 175.637368 
L 45 165.623684 
L 45 165.623684 
z
" style="fill:#b22222;"/>
   </g>
   <g id="patch_17">
    <path clip-path="url(#p56c4b8253f)" d="M 45 155.61 
L 45 155.61 
L 45 145.596316 
L 45 145.596316 
z
" style="fill:#b22222;"/>
   </g>
   <g id="patch_18">
    <path clip-path="url(#p56c4b8253f)" d="M 45 135.582632 
L 49.362545 135.582632 
L 49.362545 125.568947 
L 45 125.568947 
z
" style="fill:#b22222;"/>
   </g>
   <g id="patch_19">
    <path clip-path="url(#p56c4b8253f)" d="M 45 115.555263 
L 45 115.555263 
L 45 105.541579 
L 45 105.541579 
z
" style="fill:#b22222;"/>
   </g>
   <g id="patch_20">
    <path clip-path="url(#p56c4b8253f)" d="M 45 95.527895 
L 45 95.527895 
L 45 85.514211 
L 45 85.514211 
z
" style="fill:#b22222;"/>
   </g>
   <g id="patch_21">
    <path clip-path="url(#p56c4b8253f)" d="M 45 75.500526 
L 45 75.500526 
L 45 65.486842 
L 45 65.486842 
z
" style="fill:#b22222;"/>
   </g>
   <g id="patch_22">
    <path clip-path="url(#p56c4b8253f)" d="M 45 435.993158 
L 53.420727 435.993158 
L 53.420727 425.979474 
L 45 425.979474 
z
" style="fill:#1f77b4;"/>
   </g>
   <g id="patch_23">
    <path clip-path="url(#p56c4b8253f)" d="M 45 415.965789 
L 45 415.965789 
L 45 405.952105 
L 45 405.952105 
z
" style="fill:#1f77b4;"/>
   </g>
   <g id="patch_24">
    <path clip-path="url(#p56c4b8253f)" d="M 45 395.938421 
L 45 395.938421 
L 45 385.924737 
L 45 385.924737 
z
" style="fill:#1f77b4;"/>
   </g>
   <g id="patch_25">
    <path clip-path="url(#p56c4b8253f)" d="M 45 375.911053 
L 45 375.911053 
L 45 365.897368 
L 45 365.897368 
z
" style="fill:#1f77b4;"/>
   </g>
   <g id="patch_26">
    <path clip-path="url(#p56c4b8253f)" d="M 45 355.883684 
L 45 355.883684 
L 45 345.87 
L 45 345.87 
z
" style="fill:#1f77b4;"/>
   </g>
   <g id="patch_27">
    <path clip-path="url(#p56c4b8253f)" d="M 45 335.856316 
L 45 335.856316 
L 45 325.842632 
L 45 325.842632 
z
" style="fill:#1f77b4;"/>
   </g>
   <g id="patch_28">
    <path clip-path="url(#p56c4b8253f)" d="M 45 315.828947 
L 45 315.828947 
L 45 305.815263 
L 45 305.815263 
z
" style="fill:#1f77b4;"/>
   </g>
   <g id="patch_29">
    <path clip-path="url(#p56c4b8253f)" d="M 45 295.801579 
L 45 295.801579 
L 45 285.787895 
L 45 285.787895 
z
" style="fill:#1f77b4;"/>
   </g>
   <g id="patch_30">
    <path clip-path="url(#p56c4b8253f)" d="M 45 275.774211 
L 45 275.774211 
L 45 265.760526 
L 45 265.760526 
z
" style="fill:#1f77b4;"/>
   </g>
   <g id="patch_31">
    <path clip-path="url(#p56c4b8253f)" d="M 45 255.746842 
L 45 255.746842 
L 45 245.733158 
L 45 245.733158 
z
" style="fill:#1f77b4;"/>
   </g>
   <g id="patch_32">
    <path clip-path="url(#p56c4b8253f)" d="M 45 235.719474 
L 45 235.719474 
L 45 225.705789 
L 45 225.705789 
z
" style="fill:#1f77b4;"/>
   </g>
   <g id="patch_33">
    <path clip-path="url(#p56c4b8253f)" d="M 45 215.692105 
L 45 215.692105 
L 45 205.678421 
L 45 205.678421 
z
" style="fill:#1f77b4;"/>
   </g>
   <g id="patch_34">
    <path clip-path="url(#p56c4b8253f)" d="M 45 195.664737 
L 45 195.664737 
L 45 185.651053 
L 45 185.651053 
z
" style="fill:#1f77b4;"/>
   </g>
   <g id="patch_35">
    <path clip-path="url(#p56c4b8253f)" d="M 45 175.637368 
L 45 175.637368 
L 45 165.623684 
L 45 165.623684 
z
" style="fill:#1f77b4;"/>
   </g>
   <g id="patch_36">
    <path clip-path="url(#p56c4b8253f)" d="M 45 155.61 
L 45 155.61 
L 45 145.596316 
L 45 145.596316 
z
" style="fill:#1f77b4;"/>
   </g>
   <g id="patch_37">
    <path clip-path="url(#p56c4b8253f)" d="M 45 135.582632 
L 45 135.582632 
L 45 125.568947 
L 45 125.568947 
z
" style="fill:#1f77b4;"/>
   </g>
   <g id="patch_38">
    <path clip-path="url(#p56c4b8253f)" d="M 45 115.555263 
L 45 115.555263 
L 45 105.541579 
L 45 105.541579 
z
" style="fill:#1f77b4;"/>
   </g>
   <g id="patch_39">
    <path clip-path="url(#p56c4b8253f)" d="M 45 95.527895 
L 45 95.527895 
L 45 85.514211 
L 45 85.514211 
z
" style="fill:#1f77b4;"/>
   </g>
   <g id="patch_40">
    <path clip-path="url(#p56c4b8253f)" d="M 45 75.500526 
L 45 75.500526 
L 45 65.486842 
L 45 65.486842 
z
" style="fill:#1f77b4;"/>
   </g>
   <g id="patch_41">
    <path clip-path="url(#p56c4b8253f)" d="M 45 435.993158 
L 45 435.993158 
L 45 425.979474 
L 45 425.979474 
z
" style="fill:#ff7f0e;"/>
   </g>
   <g id="patch_42">
    <path clip-path="url(#p56c4b8253f)" d="M 45 415.965789 
L 45 415.965789 
L 45 405.952105 
L 45 405.952105 
z
" style="fill:#ff7f0e;"/>
   </g>
   <g id="patch_43">
    <path clip-path="url(#p56c4b8253f)" d="M 45 395.938421 
L 45 395.938421 
L 45 385.924737 
L 45 385.924737 
z
" style="fill:#ff7f0e;"/>
   </g>
   <g id="patch_44">
    <path clip-path="url(#p56c4b8253f)" d="M 45 375.911053 
L 45 375.911053 
L 45 365.897368 
L 45 365.897368 
z
" style="fill:#ff7f0e;"/>
   </g>
   <g id="patch_45">
    <path clip-path="url(#p56c4b8253f)" d="M 45 355.883684 
L 45 355.883684 
L 45 345.87 
L 45 345.87 
z
" style="fill:#ff7f0e;"/>
   </g>
   <g id="patch_46">
    <path clip-path="url(#p56c4b8253f)" d="M 45 335.856316 
L 45 335.856316 
L 45 325.842632 
L 45 325.842632 
z
" style="fill:#ff7f0e;"/>
   </g>
   <g id="patch_47">
    <path clip-path="url(#p56c4b8253f)" d="M 45 315.828947 
L 45 315.828947 
L 45 305.815263 
L 45 305.815263 
z
" style="fill:#ff7f0e;"/>
   </g>
   <g id="patch_48">
    <path clip-path="url(#p56c4b8253f)" d="M 45 295.801579 
L 45 295.801579 
L 45 285.787895 
L 45 285.787895 
z
" style="fill:#ff7f0e;"/>
   </g>
   <g id="patch_49">
    <path clip-path="url(#p56c4b8253f)" d="M 45 275.774211 
L 45 275.774211 
L 45 265.760526 
L 45 265.760526 
z
" style="fill:#ff7f0e;"/>
   </g>
   <g id="patch_50">
    <path clip-path="url(#p56c4b8253f)" d="M 45 255.746842 
L 45 255.746842 
L 45 245.733158 
L 45 245.733158 
z
" style="fill:#ff7f0e;"/>
   </g>
   <g id="patch_51">
    <path clip-path="url(#p56c4b8253f)" d="M 45 235.719474 
L 45 235.719474 
L 45 225.705789 
L 45 225.705789 
z
" style="fill:#ff7f0e;"/>
   </g>
   <g id="patch_52">
    <path clip-path="url(#p56c4b8253f)" d="M 45 215.692105 
L 45 215.692105 
L 45 205.678421 
L 45 205.678421 
z
" style="fill:#ff7f0e;"/>
   </g>
   <g id="patch_53">
    <path clip-path="url(#p56c4b8253f)" d="M 45 195.664737 
L 45 195.664737 
L 45 185.651053 
L 45 185.651053 
z
" style="fill:#ff7f0e;"/>
   </g>
   <g id="patch_54">
    <path clip-path="url(#p56c4b8253f)" d="M 45 175.637368 
L 45 175.637368 
L 45 165.623684 
L 45 165.623684 
z
" style="fill:#ff7f0e;"/>
   </g>
   <g id="patch_55">
    <path clip-path="url(#p56c4b8253f)" d="M 45 155.61 
L 45 155.61 
L 45 145.596316 
L 45 145.596316 
z
" style="fill:#ff7f0e;"/>
   </g>
   <g id="patch_56">
    <path clip-path="url(#p56c4b8253f)" d="M 45 135.582632 
L 45 135.582632 
L 45 125.568947 
L 45 125.568947 
z
" style="fill:#ff7f0e;"/>
   </g>
   <g id="patch_57">
    <path clip-path="url(#p56c4b8253f)" d="M 45 115.555263 
L 45 115.555263 
L 45 105.541579 
L 45 105.541579 
z
" style="fill:#ff7f0e;"/>
   </g>
   <g id="patch_58">
    <path clip-path="url(#p56c4b8253f)" d="M 45 95.527895 
L 69.538854 95.527895 
L 69.538854 85.514211 
L 45 85.514211 
z
" style="fill:#ff7f0e;"/>
   </g>
   <g id="patch_59">
    <path clip-path="url(#p56c4b8253f)" d="M 45 75.500526 
L 45 75.500526 
L 45 65.486842 
L 45 65.486842 
z
" style="fill:#ff7f0e;"/>
   </g>
   <g id="patch_60">
    <path clip-path="url(#p56c4b8253f)" d="M 53.420727 435.993158 
L 68.486727 435.993158 
L 68.486727 425.979474 
L 53.420727 425.979474 
z
" style="fill:#2ca02c;"/>
   </g>
   <g id="patch_61">
    <path clip-path="url(#p56c4b8253f)" d="M 45 415.965789 
L 80.255455 415.965789 
L 80.255455 405.952105 
L 45 405.952105 
z
" style="fill:#2ca02c;"/>
   </g>
   <g id="patch_62">
    <path clip-path="url(#p56c4b8253f)" d="M 45 395.938421 
L 45 395.938421 
L 45 385.924737 
L 45 385.924737 
z
" style="fill:#2ca02c;"/>
   </g>
   <g id="patch_63">
    <path clip-path="url(#p56c4b8253f)" d="M 45 375.911053 
L 45 375.911053 
L 45 365.897368 
L 45 365.897368 
z
" style="fill:#2ca02c;"/>
   </g>
   <g id="patch_64">
    <path clip-path="url(#p56c4b8253f)" d="M 45 355.883684 
L 236.140364 355.883684 
L 236.140364 345.87 
L 45 345.87 
z
" style="fill:#2ca02c;"/>
   </g>
   <g id="patch_65">
    <path clip-path="url(#p56c4b8253f)" d="M 77.211818 335.856316 
L 159.745091 335.856316 
L 159.745091 325.842632 
L 77.211818 325.842632 
z
" style="fill:#2ca02c;"/>
   </g>
   <g id="patch_66">
    <path clip-path="url(#p56c4b8253f)" d="M 114.445636 315.828947 
L 197.131091 315.828947 
L 197.131091 305.815263 
L 114.445636 305.815263 
z
" style="fill:#2ca02c;"/>
   </g>
   <g id="patch_67">
    <path clip-path="url(#p56c4b8253f)" d="M 52.609091 295.801579 
L 95.169273 295.801579 
L 95.169273 285.787895 
L 52.609091 285.787895 
z
" style="fill:#2ca02c;"/>
   </g>
   <g id="patch_68">
    <path clip-path="url(#p56c4b8253f)" d="M 180.441818 275.774211 
L 318.724364 275.774211 
L 318.724364 265.760526 
L 180.441818 265.760526 
z
" style="fill:#2ca02c;"/>
   </g>
   <g id="patch_69">
    <path clip-path="url(#p56c4b8253f)" d="M 45 255.746842 
L 132.707455 255.746842 
L 132.707455 245.733158 
L 45 245.733158 
z
" style="fill:#2ca02c;"/>
   </g>
   <g id="patch_70">
    <path clip-path="url(#p56c4b8253f)" d="M 62.298 235.719474 
L 191.855455 235.719474 
L 191.855455 225.705789 
L 62.298 225.705789 
z
" style="fill:#2ca02c;"/>
   </g>
   <g id="patch_71">
    <path clip-path="url(#p56c4b8253f)" d="M 52.406182 215.692105 
L 120.33 215.692105 
L 120.33 205.678421 
L 52.406182 205.678421 
z
" style="fill:#2ca02c;"/>
   </g>
   <g id="patch_72">
    <path clip-path="url(#p56c4b8253f)" d="M 45 195.664737 
L 75.436364 195.664737 
L 75.436364 185.651053 
L 45 185.651053 
z
" style="fill:#2ca02c;"/>
   </g>
   <g id="patch_73">
    <path clip-path="url(#p56c4b8253f)" d="M 45 175.637368 
L 100.8 175.637368 
L 100.8 165.623684 
L 45 165.623684 
z
" style="fill:#2ca02c;"/>
   </g>
   <g id="patch_74">
    <path clip-path="url(#p56c4b8253f)" d="M 45 155.61 
L 79.088727 155.61 
L 79.088727 145.596316 
L 45 145.596316 
z
" style="fill:#2ca02c;"/>
   </g>
   <g id="patch_75">
    <path clip-path="url(#p56c4b8253f)" d="M 49.362545 135.582632 
L 70.414364 135.582632 
L 70.414364 125.568947 
L 49.362545 125.568947 
z
" style="fill:#2ca02c;"/>
   </g>
   <g id="patch_76">
    <path clip-path="url(#p56c4b8253f)" d="M 45 115.555263 
L 45 115.555263 
L 45 105.541579 
L 45 105.541579 
z
" style="fill:#2ca02c;"/>
   </g>
   <g id="patch_77">
    <path clip-path="url(#p56c4b8253f)" d="M 45 95.527895 
L 45 95.527895 
L 45 85.514211 
L 45 85.514211 
z
" style="fill:#2ca02c;"/>
   </g>
   <g id="patch_78">
    <path clip-path="url(#p56c4b8253f)" d="M 45 75.500526 
L 45 75.500526 
L 45 65.486842 
L 45 65.486842 
z
" style="fill:#2ca02c;"/>
   </g>
   <g id="patch_79">
    <path clip-path="url(#p56c4b8253f)" d="M 45 435.993158 
L 45 435.993158 
L 45 425.979474 
L 45 425.979474 
z
" style="fill:#d62728;"/>
   </g>
   <g id="patch_80">
    <path clip-path="url(#p56c4b8253f)" d="M 45 415.965789 
L 45 415.965789 
L 45 405.952105 
L 45 405.952105 
z
" style="fill:#d62728;"/>
   </g>
   <g id="patch_81">
    <path clip-path="url(#p56c4b8253f)" d="M 45 395.938421 
L 45 395.938421 
L 45 385.924737 
L 45 385.924737 
z
" style="fill:#d62728;"/>
   </g>
   <g id="patch_82">
    <path clip-path="url(#p56c4b8253f)" d="M 45 375.911053 
L 45 375.911053 
L 45 365.897368 
L 45 365.897368 
z
" style="fill:#d62728;"/>
   </g>
   <g id="patch_83">
    <path clip-path="url(#p56c4b8253f)" d="M 45 355.883684 
L 45 355.883684 
L 45 345.87 
L 45 345.87 
z
" style="fill:#d62728;"/>
   </g>
   <g id="patch_84">
    <path clip-path="url(#p56c4b8253f)" d="M 45 335.856316 
L 45 335.856316 
L 45 325.842632 
L 45 325.842632 
z
" style="fill:#d62728;"/>
   </g>
   <g id="patch_85">
    <path clip-path="url(#p56c4b8253f)" d="M 45 315.828947 
L 45 315.828947 
L 45 305.815263 
L 45 305.815263 
z
" style="fill:#d62728;"/>
   </g>
   <g id="patch_86">
    <path clip-path="url(#p56c4b8253f)" d="M 45 295.801579 
L 45 295.801579 
L 45 285.787895 
L 45 285.787895 
z
" style="fill:#d62728;"/>
   </g>
   <g id="patch_87">
    <path clip-path="url(#p56c4b8253f)" d="M 45 275.774211 
L 45 275.774211 
L 45 265.760526 
L 45 265.760526 
z
" style="fill:#d62728;"/>
   </g>
   <g id="patch_88">
    <path clip-path="url(#p56c4b8253f)" d="M 45 255.746842 
L 45 255.746842 
L 45 245.733158 
L 45 245.733158 
z
" style="fill:#d62728;"/>
   </g>
   <g id="patch_89">
    <path clip-path="url(#p56c4b8253f)" d="M 45 235.719474 
L 45 235.719474 
L 45 225.705789 
L 45 225.705789 
z
" style="fill:#d62728;"/>
   </g>
   <g id="patch_90">
    <path clip-path="url(#p56c4b8253f)" d="M 45 215.692105 
L 45 215.692105 
L 45 205.678421 
L 45 205.678421 
z
" style="fill:#d62728;"/>
   </g>
   <g id="patch_91">
    <path clip-path="url(#p56c4b8253f)" d="M 45 195.664737 
L 45 195.664737 
L 45 185.651053 
L 45 185.651053 
z
" style="fill:#d62728;"/>
   </g>
   <g id="patch_92">
    <path clip-path="url(#p56c4b8253f)" d="M 45 175.637368 
L 45 175.637368 
L 45 165.623684 
L 45 165.623684 
z
" style="fill:#d62728;"/>
   </g>
   <g id="patch_93">
    <path clip-path="url(#p56c4b8253f)" d="M 45 155.61 
L 45 155.61 
L 45 145.596316 
L 45 145.596316 
z
" style="fill:#d62728;"/>
   </g>
   <g id="patch_94">
    <path clip-path="url(#p56c4b8253f)" d="M 45 135.582632 
L 45 135.582632 
L 45 125.568947 
L 45 125.568947 
z
" style="fill:#d62728;"/>
   </g>
   <g id="patch_95">
    <path clip-path="url(#p56c4b8253f)" d="M 45 115.555263 
L 45 115.555263 
L 45 105.541579 
L 45 105.541579 
z
" style="fill:#d62728;"/>
   </g>
   <g id="patch_96">
    <path clip-path="url(#p56c4b8253f)" d="M 69.538854 95.527895 
L 81.10669 95.527895 
L 81.10669 85.514211 
L 69.538854 85.514211 
z
" style="fill:#d62728;"/>
   </g>
   <g id="patch_97">
    <path clip-path="url(#p56c4b8253f)" d="M 45 75.500526 
L 45 75.500526 
L 45 65.486842 
L 45 65.486842 
z
" style="fill:#d62728;"/>
   </g>
   <g id="patch_98">
    <path clip-path="url(#p56c4b8253f)" d="M 45 435.993158 
L 45 435.993158 
L 45 425.979474 
L 45 425.979474 
z
" style="fill:#9467bd;"/>
   </g>
   <g id="patch_99">
    <path clip-path="url(#p56c4b8253f)" d="M 45 415.965789 
L 45 415.965789 
L 45 405.952105 
L 45 405.952105 
z
" style="fill:#9467bd;"/>
   </g>
   <g id="patch_100">
    <path clip-path="url(#p56c4b8253f)" d="M 45 395.938421 
L 45 395.938421 
L 45 385.924737 
L 45 385.924737 
z
" style="fill:#9467bd;"/>
   </g>
   <g id="patch_101">
    <path clip-path="url(#p56c4b8253f)" d="M 45 375.911053 
L 45 375.911053 
L 45 365.897368 
L 45 365.897368 
z
" style="fill:#9467bd;"/>
   </g>
   <g id="patch_102">
    <path clip-path="url(#p56c4b8253f)" d="M 45 355.883684 
L 45 355.883684 
L 45 345.87 
L 45 345.87 
z
" style="fill:#9467bd;"/>
   </g>
   <g id="patch_103">
    <path clip-path="url(#p56c4b8253f)" d="M 45 335.856316 
L 45 335.856316 
L 45 325.842632 
L 45 325.842632 
z
" style="fill:#9467bd;"/>
   </g>
   <g id="patch_104">
    <path clip-path="url(#p56c4b8253f)" d="M 45 315.828947 
L 45 315.828947 
L 45 305.815263 
L 45 305.815263 
z
" style="fill:#9467bd;"/>
   </g>
   <g id="patch_105">
    <path clip-path="url(#p56c4b8253f)" d="M 45 295.801579 
L 45 295.801579 
L 45 285.787895 
L 45 285.787895 
z
" style="fill:#9467bd;"/>
   </g>
   <g id="patch_106">
    <path clip-path="url(#p56c4b8253f)" d="M 45 275.774211 
L 45 275.774211 
L 45 265.760526 
L 45 265.760526 
z
" style="fill:#9467bd;"/>
   </g>
   <g id="patch_107">
    <path clip-path="url(#p56c4b8253f)" d="M 45 255.746842 
L 45 255.746842 
L 45 245.733158 
L 45 245.733158 
z
" style="fill:#9467bd;"/>
   </g>
   <g id="patch_108">
    <path clip-path="url(#p56c4b8253f)" d="M 45 235.719474 
L 45 235.719474 
L 45 225.705789 
L 45 225.705789 
z
" style="fill:#9467bd;"/>
   </g>
   <g id="patch_109">
    <path clip-path="url(#p56c4b8253f)" d="M 45 215.692105 
L 45 215.692105 
L 45 205.678421 
L 45 205.678421 
z
" style="fill:#9467bd;"/>
   </g>
   <g id="patch_110">
    <path clip-path="url(#p56c4b8253f)" d="M 45 195.664737 
L 45 195.664737 
L 45 185.651053 
L 45 185.651053 
z
" style="fill:#9467bd;"/>
   </g>
   <g id="patch_111">
    <path clip-path="url(#p56c4b8253f)" d="M 45 175.637368 
L 45 175.637368 
L 45 165.623684 
L 45 165.623684 
z
" style="fill:#9467bd;"/>
   </g>
   <g id="patch_112">
    <path clip-path="url(#p56c4b8253f)" d="M 45 155.61 
L 45 155.61 
L 45 145.596316 
L 45 145.596316 
z
" style="fill:#9467bd;"/>
   </g>
   <g id="patch_113">
    <path clip-path="url(#p56c4b8253f)" d="M 45 135.582632 
L 45 135.582632 
L 45 125.568947 
L 45 125.568947 
z
" style="fill:#9467bd;"/>
   </g>
   <g id="patch_114">
    <path clip-path="url(#p56c4b8253f)" d="M 45 115.555263 
L 45 115.555263 
L 45 105.541579 
L 45 105.541579 
z
" style="fill:#9467bd;"/>
   </g>
   <g id="patch_115">
    <path clip-path="url(#p56c4b8253f)" d="M 81.10669 95.527895 
L 86.137757 95.527895 
L 86.137757 85.514211 
L 81.10669 85.514211 
z
" style="fill:#9467bd;"/>
   </g>
   <g id="patch_116">
    <path clip-path="url(#p56c4b8253f)" d="M 45 75.500526 
L 45 75.500526 
L 45 65.486842 
L 45 65.486842 
z
" style="fill:#9467bd;"/>
   </g>
   <g id="patch_117">
    <path clip-path="url(#p56c4b8253f)" d="M 45 435.993158 
L 45 435.993158 
L 45 425.979474 
L 45 425.979474 
z
" style="fill:#8c564b;"/>
   </g>
   <g id="patch_118">
    <path clip-path="url(#p56c4b8253f)" d="M 45 415.965789 
L 45 415.965789 
L 45 405.952105 
L 45 405.952105 
z
" style="fill:#8c564b;"/>
   </g>
   <g id="patch_119">
    <path clip-path="url(#p56c4b8253f)" d="M 45 395.938421 
L 45 395.938421 
L 45 385.924737 
L 45 385.924737 
z
" style="fill:#8c564b;"/>
   </g>
   <g id="patch_120">
    <path clip-path="url(#p56c4b8253f)" d="M 45 375.911053 
L 45 375.911053 
L 45 365.897368 
L 45 365.897368 
z
" style="fill:#8c564b;"/>
   </g>
   <g id="patch_121">
    <path clip-path="url(#p56c4b8253f)" d="M 45 355.883684 
L 45 355.883684 
L 45 345.87 
L 45 345.87 
z
" style="fill:#8c564b;"/>
   </g>
   <g id="patch_122">
    <path clip-path="url(#p56c4b8253f)" d="M 45 335.856316 
L 45 335.856316 
L 45 325.842632 
L 45 325.842632 
z
" style="fill:#8c564b;"/>
   </g>
   <g id="patch_123">
    <path clip-path="url(#p56c4b8253f)" d="M 45 315.828947 
L 45 315.828947 
L 45 305.815263 
L 45 305.815263 
z
" style="fill:#8c564b;"/>
   </g>
   <g id="patch_124">
    <path clip-path="url(#p56c4b8253f)" d="M 45 295.801579 
L 45 295.801579 
L 45 285.787895 
L 45 285.787895 
z
" style="fill:#8c564b;"/>
   </g>
   <g id="patch_125">
    <path clip-path="url(#p56c4b8253f)" d="M 45 275.774211 
L 45 275.774211 
L 45 265.760526 
L 45 265.760526 
z
" style="fill:#8c564b;"/>
   </g>
   <g id="patch_126">
    <path clip-path="url(#p56c4b8253f)" d="M 45 255.746842 
L 45 255.746842 
L 45 245.733158 
L 45 245.733158 
z
" style="fill:#8c564b;"/>
   </g>
   <g id="patch_127">
    <path clip-path="url(#p56c4b8253f)" d="M 45 235.719474 
L 45 235.719474 
L 45 225.705789 
L 45 225.705789 
z
" style="fill:#8c564b;"/>
   </g>
   <g id="patch_128">
    <path clip-path="url(#p56c4b8253f)" d="M 45 215.692105 
L 45 215.692105 
L 45 205.678421 
L 45 205.678421 
z
" style="fill:#8c564b;"/>
   </g>
   <g id="patch_129">
    <path clip-path="url(#p56c4b8253f)" d="M 45 195.664737 
L 45 195.664737 
L 45 185.651053 
L 45 185.651053 
z
" style="fill:#8c564b;"/>
   </g>
   <g id="patch_130">
    <path clip-path="url(#p56c4b8253f)" d="M 45 175.637368 
L 45 175.637368 
L 45 165.623684 
L 45 165.623684 
z
" style="fill:#8c564b;"/>
   </g>
   <g id="patch_131">
    <path clip-path="url(#p56c4b8253f)" d="M 45 155.61 
L 45 155.61 
L 45 145.596316 
L 45 145.596316 
z
" style="fill:#8c564b;"/>
   </g>
   <g id="patch_132">
    <path clip-path="url(#p56c4b8253f)" d="M 45 135.582632 
L 45 135.582632 
L 45 125.568947 
L 45 125.568947 
z
" style="fill:#8c564b;"/>
   </g>
   <g id="patch_133">
    <path clip-path="url(#p56c4b8253f)" d="M 45 115.555263 
L 45 115.555263 
L 45 105.541579 
L 45 105.541579 
z
" style="fill:#8c564b;"/>
   </g>
   <g id="patch_134">
    <path clip-path="url(#p56c4b8253f)" d="M 86.137757 95.527895 
L 93.12004 95.527895 
L 93.12004 85.514211 
L 86.137757 85.514211 
z
" style="fill:#8c564b;"/>
   </g>
   <g id="patch_135">
    <path clip-path="url(#p56c4b8253f)" d="M 45 75.500526 
L 45 75.500526 
L 45 65.486842 
L 45 65.486842 
z
" style="fill:#8c564b;"/>
   </g>
   <g id="patch_136">
    <path clip-path="url(#p56c4b8253f)" d="M 45 435.993158 
L 45 435.993158 
L 45 425.979474 
L 45 425.979474 
z
" style="fill:#e377c2;"/>
   </g>
   <g id="patch_137">
    <path clip-path="url(#p56c4b8253f)" d="M 45 415.965789 
L 45 415.965789 
L 45 405.952105 
L 45 405.952105 
z
" style="fill:#e377c2;"/>
   </g>
   <g id="patch_138">
    <path clip-path="url(#p56c4b8253f)" d="M 45 395.938421 
L 45 395.938421 
L 45 385.924737 
L 45 385.924737 
z
" style="fill:#e377c2;"/>
   </g>
   <g id="patch_139">
    <path clip-path="url(#p56c4b8253f)" d="M 45 375.911053 
L 45 375.911053 
L 45 365.897368 
L 45 365.897368 
z
" style="fill:#e377c2;"/>
   </g>
   <g id="patch_140">
    <path clip-path="url(#p56c4b8253f)" d="M 45 355.883684 
L 45 355.883684 
L 45 345.87 
L 45 345.87 
z
" style="fill:#e377c2;"/>
   </g>
   <g id="patch_141">
    <path clip-path="url(#p56c4b8253f)" d="M 45 335.856316 
L 45 335.856316 
L 45 325.842632 
L 45 325.842632 
z
" style="fill:#e377c2;"/>
   </g>
   <g id="patch_142">
    <path clip-path="url(#p56c4b8253f)" d="M 45 315.828947 
L 45 315.828947 
L 45 305.815263 
L 45 305.815263 
z
" style="fill:#e377c2;"/>
   </g>
   <g id="patch_143">
    <path clip-path="url(#p56c4b8253f)" d="M 45 295.801579 
L 45 295.801579 
L 45 285.787895 
L 45 285.787895 
z
" style="fill:#e377c2;"/>
   </g>
   <g id="patch_144">
    <path clip-path="url(#p56c4b8253f)" d="M 45 275.774211 
L 45 275.774211 
L 45 265.760526 
L 45 265.760526 
z
" style="fill:#e377c2;"/>
   </g>
   <g id="patch_145">
    <path clip-path="url(#p56c4b8253f)" d="M 45 255.746842 
L 45 255.746842 
L 45 245.733158 
L 45 245.733158 
z
" style="fill:#e377c2;"/>
   </g>
   <g id="patch_146">
    <path clip-path="url(#p56c4b8253f)" d="M 45 235.719474 
L 45 235.719474 
L 45 225.705789 
L 45 225.705789 
z
" style="fill:#e377c2;"/>
   </g>
   <g id="patch_147">
    <path clip-path="url(#p56c4b8253f)" d="M 45 215.692105 
L 45 215.692105 
L 45 205.678421 
L 45 205.678421 
z
" style="fill:#e377c2;"/>
   </g>
   <g id="patch_148">
    <path clip-path="url(#p56c4b8253f)" d="M 45 195.664737 
L 45 195.664737 
L 45 185.651053 
L 45 185.651053 
z
" style="fill:#e377c2;"/>
   </g>
   <g id="patch_149">
    <path clip-path="url(#p56c4b8253f)" d="M 45 175.637368 
L 45 175.637368 
L 45 165.623684 
L 45 165.623684 
z
" style="fill:#e377c2;"/>
   </g>
   <g id="patch_150">
    <path clip-path="url(#p56c4b8253f)" d="M 45 155.61 
L 45 155.61 
L 45 145.596316 
L 45 145.596316 
z
" style="fill:#e377c2;"/>
   </g>
   <g id="patch_151">
    <path clip-path="url(#p56c4b8253f)" d="M 45 135.582632 
L 45 135.582632 
L 45 125.568947 
L 45 125.568947 
z
" style="fill:#e377c2;"/>
   </g>
   <g id="patch_152">
    <path clip-path="url(#p56c4b8253f)" d="M 45 115.555263 
L 45 115.555263 
L 45 105.541579 
L 45 105.541579 
z
" style="fill:#e377c2;"/>
   </g>
   <g id="patch_153">
    <path clip-path="url(#p56c4b8253f)" d="M 93.12004 95.527895 
L 106.463368 95.527895 
L 106.463368 85.514211 
L 93.12004 85.514211 
z
" style="fill:#e377c2;"/>
   </g>
   <g id="patch_154">
    <path clip-path="url(#p56c4b8253f)" d="M 45 75.500526 
L 45 75.500526 
L 45 65.486842 
L 45 65.486842 
z
" style="fill:#e377c2;"/>
   </g>
   <g id="patch_155">
    <path clip-path="url(#p56c4b8253f)" d="M 45 435.993158 
L 45 435.993158 
L 45 425.979474 
L 45 425.979474 
z
" style="fill:#7f7f7f;"/>
   </g>
   <g id="patch_156">
    <path clip-path="url(#p56c4b8253f)" d="M 45 415.965789 
L 45 415.965789 
L 45 405.952105 
L 45 405.952105 
z
" style="fill:#7f7f7f;"/>
   </g>
   <g id="patch_157">
    <path clip-path="url(#p56c4b8253f)" d="M 45 395.938421 
L 45 395.938421 
L 45 385.924737 
L 45 385.924737 
z
" style="fill:#7f7f7f;"/>
   </g>
   <g id="patch_158">
    <path clip-path="url(#p56c4b8253f)" d="M 45 375.911053 
L 45 375.911053 
L 45 365.897368 
L 45 365.897368 
z
" style="fill:#7f7f7f;"/>
   </g>
   <g id="patch_159">
    <path clip-path="url(#p56c4b8253f)" d="M 45 355.883684 
L 45 355.883684 
L 45 345.87 
L 45 345.87 
z
" style="fill:#7f7f7f;"/>
   </g>
   <g id="patch_160">
    <path clip-path="url(#p56c4b8253f)" d="M 45 335.856316 
L 45 335.856316 
L 45 325.842632 
L 45 325.842632 
z
" style="fill:#7f7f7f;"/>
   </g>
   <g id="patch_161">
    <path clip-path="url(#p56c4b8253f)" d="M 45 315.828947 
L 45 315.828947 
L 45 305.815263 
L 45 305.815263 
z
" style="fill:#7f7f7f;"/>
   </g>
   <g id="patch_162">
    <path clip-path="url(#p56c4b8253f)" d="M 45 295.801579 
L 45 295.801579 
L 45 285.787895 
L 45 285.787895 
z
" style="fill:#7f7f7f;"/>
   </g>
   <g id="patch_163">
    <path clip-path="url(#p56c4b8253f)" d="M 45 275.774211 
L 45 275.774211 
L 45 265.760526 
L 45 265.760526 
z
" style="fill:#7f7f7f;"/>
   </g>
   <g id="patch_164">
    <path clip-path="url(#p56c4b8253f)" d="M 45 255.746842 
L 45 255.746842 
L 45 245.733158 
L 45 245.733158 
z
" style="fill:#7f7f7f;"/>
   </g>
   <g id="patch_165">
    <path clip-path="url(#p56c4b8253f)" d="M 45 235.719474 
L 45 235.719474 
L 45 225.705789 
L 45 225.705789 
z
" style="fill:#7f7f7f;"/>
   </g>
   <g id="patch_166">
    <path clip-path="url(#p56c4b8253f)" d="M 45 215.692105 
L 45 215.692105 
L 45 205.678421 
L 45 205.678421 
z
" style="fill:#7f7f7f;"/>
   </g>
   <g id="patch_167">
    <path clip-path="url(#p56c4b8253f)" d="M 45 195.664737 
L 45 195.664737 
L 45 185.651053 
L 45 185.651053 
z
" style="fill:#7f7f7f;"/>
   </g>
   <g id="patch_168">
    <path clip-path="url(#p56c4b8253f)" d="M 45 175.637368 
L 45 175.637368 
L 45 165.623684 
L 45 165.623684 
z
" style="fill:#7f7f7f;"/>
   </g>
   <g id="patch_169">
    <path clip-path="url(#p56c4b8253f)" d="M 45 155.61 
L 45 155.61 
L 45 145.596316 
L 45 145.596316 
z
" style="fill:#7f7f7f;"/>
   </g>
   <g id="patch_170">
    <path clip-path="url(#p56c4b8253f)" d="M 45 135.582632 
L 45 135.582632 
L 45 125.568947 
L 45 125.568947 
z
" style="fill:#7f7f7f;"/>
   </g>
   <g id="patch_171">
    <path clip-path="url(#p56c4b8253f)" d="M 45 115.555263 
L 45 115.555263 
L 45 105.541579 
L 45 105.541579 
z
" style="fill:#7f7f7f;"/>
   </g>
   <g id="patch_172">
    <path clip-path="url(#p56c4b8253f)" d="M 106.463368 95.527895 
L 109.78764 95.527895 
L 109.78764 85.514211 
L 106.463368 85.514211 
z
" style="fill:#7f7f7f;"/>
   </g>
   <g id="patch_173">
    <path clip-path="url(#p56c4b8253f)" d="M 45 75.500526 
L 45 75.500526 
L 45 65.486842 
L 45 65.486842 
z
" style="fill:#7f7f7f;"/>
   </g>
   <g id="patch_174">
    <path clip-path="url(#p56c4b8253f)" d="M 45 435.993158 
L 45 435.993158 
L 45 425.979474 
L 45 425.979474 
z
" style="fill:#bcbd22;"/>
   </g>
   <g id="patch_175">
    <path clip-path="url(#p56c4b8253f)" d="M 45 415.965789 
L 45 415.965789 
L 45 405.952105 
L 45 405.952105 
z
" style="fill:#bcbd22;"/>
   </g>
   <g id="patch_176">
    <path clip-path="url(#p56c4b8253f)" d="M 45 395.938421 
L 45 395.938421 
L 45 385.924737 
L 45 385.924737 
z
" style="fill:#bcbd22;"/>
   </g>
   <g id="patch_177">
    <path clip-path="url(#p56c4b8253f)" d="M 45 375.911053 
L 45 375.911053 
L 45 365.897368 
L 45 365.897368 
z
" style="fill:#bcbd22;"/>
   </g>
   <g id="patch_178">
    <path clip-path="url(#p56c4b8253f)" d="M 45 355.883684 
L 45 355.883684 
L 45 345.87 
L 45 345.87 
z
" style="fill:#bcbd22;"/>
   </g>
   <g id="patch_179">
    <path clip-path="url(#p56c4b8253f)" d="M 45 335.856316 
L 45 335.856316 
L 45 325.842632 
L 45 325.842632 
z
" style="fill:#bcbd22;"/>
   </g>
   <g id="patch_180">
    <path clip-path="url(#p56c4b8253f)" d="M 45 315.828947 
L 45 315.828947 
L 45 305.815263 
L 45 305.815263 
z
" style="fill:#bcbd22;"/>
   </g>
   <g id="patch_181">
    <path clip-path="url(#p56c4b8253f)" d="M 45 295.801579 
L 45 295.801579 
L 45 285.787895 
L 45 285.787895 
z
" style="fill:#bcbd22;"/>
   </g>
   <g id="patch_182">
    <path clip-path="url(#p56c4b8253f)" d="M 45 275.774211 
L 45 275.774211 
L 45 265.760526 
L 45 265.760526 
z
" style="fill:#bcbd22;"/>
   </g>
   <g id="patch_183">
    <path clip-path="url(#p56c4b8253f)" d="M 45 255.746842 
L 45 255.746842 
L 45 245.733158 
L 45 245.733158 
z
" style="fill:#bcbd22;"/>
   </g>
   <g id="patch_184">
    <path clip-path="url(#p56c4b8253f)" d="M 45 235.719474 
L 45 235.719474 
L 45 225.705789 
L 45 225.705789 
z
" style="fill:#bcbd22;"/>
   </g>
   <g id="patch_185">
    <path clip-path="url(#p56c4b8253f)" d="M 45 215.692105 
L 45 215.692105 
L 45 205.678421 
L 45 205.678421 
z
" style="fill:#bcbd22;"/>
   </g>
   <g id="patch_186">
    <path clip-path="url(#p56c4b8253f)" d="M 45 195.664737 
L 45 195.664737 
L 45 185.651053 
L 45 185.651053 
z
" style="fill:#bcbd22;"/>
   </g>
   <g id="patch_187">
    <path clip-path="url(#p56c4b8253f)" d="M 45 175.637368 
L 45 175.637368 
L 45 165.623684 
L 45 165.623684 
z
" style="fill:#bcbd22;"/>
   </g>
   <g id="patch_188">
    <path clip-path="url(#p56c4b8253f)" d="M 45 155.61 
L 45 155.61 
L 45 145.596316 
L 45 145.596316 
z
" style="fill:#bcbd22;"/>
   </g>
   <g id="patch_189">
    <path clip-path="url(#p56c4b8253f)" d="M 45 135.582632 
L 45 135.582632 
L 45 125.568947 
L 45 125.568947 
z
" style="fill:#bcbd22;"/>
   </g>
   <g id="patch_190">
    <path clip-path="url(#p56c4b8253f)" d="M 45 115.555263 
L 45 115.555263 
L 45 105.541579 
L 45 105.541579 
z
" style="fill:#bcbd22;"/>
   </g>
   <g id="patch_191">
    <path clip-path="url(#p56c4b8253f)" d="M 109.78764 95.527895 
L 111.945032 95.527895 
L 111.945032 85.514211 
L 109.78764 85.514211 
z
" style="fill:#bcbd22;"/>
   </g>
   <g id="patch_192">
    <path clip-path="url(#p56c4b8253f)" d="M 45 75.500526 
L 45 75.500526 
L 45 65.486842 
L 45 65.486842 
z
" style="fill:#bcbd22;"/>
   </g>
   <g id="patch_193">
    <path clip-path="url(#p56c4b8253f)" d="M 45 435.993158 
L 45 435.993158 
L 45 425.979474 
L 45 425.979474 
z
" style="fill:#17becf;"/>
   </g>
   <g id="patch_194">
    <path clip-path="url(#p56c4b8253f)" d="M 45 415.965789 
L 45 415.965789 
L 45 405.952105 
L 45 405.952105 
z
" style="fill:#17becf;"/>
   </g>
   <g id="patch_195">
    <path clip-path="url(#p56c4b8253f)" d="M 45 395.938421 
L 45 395.938421 
L 45 385.924737 
L 45 385.924737 
z
" style="fill:#17becf;"/>
   </g>
   <g id="patch_196">
    <path clip-path="url(#p56c4b8253f)" d="M 45 375.911053 
L 45 375.911053 
L 45 365.897368 
L 45 365.897368 
z
" style="fill:#17becf;"/>
   </g>
   <g id="patch_197">
    <path clip-path="url(#p56c4b8253f)" d="M 45 355.883684 
L 45 355.883684 
L 45 345.87 
L 45 345.87 
z
" style="fill:#17becf;"/>
   </g>
   <g id="patch_198">
    <path clip-path="url(#p56c4b8253f)" d="M 45 335.856316 
L 45 335.856316 
L 45 325.842632 
L 45 325.842632 
z
" style="fill:#17becf;"/>
   </g>
   <g id="patch_199">
    <path clip-path="url(#p56c4b8253f)" d="M 45 315.828947 
L 45 315.828947 
L 45 305.815263 
L 45 305.815263 
z
" style="fill:#17becf;"/>
   </g>
   <g id="patch_200">
    <path clip-path="url(#p56c4b8253f)" d="M 45 295.801579 
L 45 295.801579 
L 45 285.787895 
L 45 285.787895 
z
" style="fill:#17becf;"/>
   </g>
   <g id="patch_201">
    <path clip-path="url(#p56c4b8253f)" d="M 45 275.774211 
L 45 275.774211 
L 45 265.760526 
L 45 265.760526 
z
" style="fill:#17becf;"/>
   </g>
   <g id="patch_202">
    <path clip-path="url(#p56c4b8253f)" d="M 45 255.746842 
L 45 255.746842 
L 45 245.733158 
L 45 245.733158 
z
" style="fill:#17becf;"/>
   </g>
   <g id="patch_203">
    <path clip-path="url(#p56c4b8253f)" d="M 45 235.719474 
L 45 235.719474 
L 45 225.705789 
L 45 225.705789 
z
" style="fill:#17becf;"/>
   </g>
   <g id="patch_204">
    <path clip-path="url(#p56c4b8253f)" d="M 45 215.692105 
L 45 215.692105 
L 45 205.678421 
L 45 205.678421 
z
" style="fill:#17becf;"/>
   </g>
   <g id="patch_205">
    <path clip-path="url(#p56c4b8253f)" d="M 45 195.664737 
L 45 195.664737 
L 45 185.651053 
L 45 185.651053 
z
" style="fill:#17becf;"/>
   </g>
   <g id="patch_206">
    <path clip-path="url(#p56c4b8253f)" d="M 45 175.637368 
L 45 175.637368 
L 45 165.623684 
L 45 165.623684 
z
" style="fill:#17becf;"/>
   </g>
   <g id="patch_207">
    <path clip-path="url(#p56c4b8253f)" d="M 45 155.61 
L 45 155.61 
L 45 145.596316 
L 45 145.596316 
z
" style="fill:#17becf;"/>
   </g>
   <g id="patch_208">
    <path clip-path="url(#p56c4b8253f)" d="M 45 135.582632 
L 45 135.582632 
L 45 125.568947 
L 45 125.568947 
z
" style="fill:#17becf;"/>
   </g>
   <g id="patch_209">
    <path clip-path="url(#p56c4b8253f)" d="M 45 115.555263 
L 45 115.555263 
L 45 105.541579 
L 45 105.541579 
z
" style="fill:#17becf;"/>
   </g>
   <g id="patch_210">
    <path clip-path="url(#p56c4b8253f)" d="M 111.945032 95.527895 
L 114.144766 95.527895 
L 114.144766 85.514211 
L 111.945032 85.514211 
z
" style="fill:#17becf;"/>
   </g>
   <g id="patch_211">
    <path clip-path="url(#p56c4b8253f)" d="M 45 75.500526 
L 45 75.500526 
L 45 65.486842 
L 45 65.486842 
z
" style="fill:#17becf;"/>
   </g>
   <g id="matplotlib.axis_1">
    <g id="xtick_1">
     <g id="line2d_1">
      <defs>
       <path d="M 0 0 
L 0 3.5 
" id="mac4dcacd9b" style="stroke:#000000;stroke-width:0.8;"/>
      </defs>
      <g>
       <use style="stroke:#000000;stroke-width:0.8;" x="45" xlink:href="#mac4dcacd9b" y="441"/>
      </g>
     </g>
     <g id="text_1">
      <!-- $\mathdefault{0}$ -->
      <defs>
       <path d="M 31.78125 66.40625 
Q 24.171875 66.40625 20.328125 58.90625 
Q 16.5 51.421875 16.5 36.375 
Q 16.5 21.390625 20.328125 13.890625 
Q 24.171875 6.390625 31.78125 6.390625 
Q 39.453125 6.390625 43.28125 13.890625 
Q 47.125 21.390625 47.125 36.375 
Q 47.125 51.421875 43.28125 58.90625 
Q 39.453125 66.40625 31.78125 66.40625 
z
M 31.78125 74.21875 
Q 44.046875 74.21875 50.515625 64.515625 
Q 56.984375 54.828125 56.984375 36.375 
Q 56.984375 17.96875 50.515625 8.265625 
Q 44.046875 -1.421875 31.78125 -1.421875 
Q 19.53125 -1.421875 13.0625 8.265625 
Q 6.59375 17.96875 6.59375 36.375 
Q 6.59375 54.828125 13.0625 64.515625 
Q 19.53125 74.21875 31.78125 74.21875 
z
" id="DejaVuSans-30"/>
      </defs>
      <g transform="translate(41.8 455.598437)scale(0.1 -0.1)">
       <use transform="translate(0 0.78125)" xlink:href="#DejaVuSans-30"/>
      </g>
     </g>
    </g>
    <g id="xtick_2">
     <g id="line2d_2">
      <g>
       <use style="stroke:#000000;stroke-width:0.8;" x="95.727273" xlink:href="#mac4dcacd9b" y="441"/>
      </g>
     </g>
     <g id="text_2">
      <!-- $\mathdefault{1}$ -->
      <defs>
       <path d="M 12.40625 8.296875 
L 28.515625 8.296875 
L 28.515625 63.921875 
L 10.984375 60.40625 
L 10.984375 69.390625 
L 28.421875 72.90625 
L 38.28125 72.90625 
L 38.28125 8.296875 
L 54.390625 8.296875 
L 54.390625 0 
L 12.40625 0 
z
" id="DejaVuSans-31"/>
      </defs>
      <g transform="translate(92.527273 455.598437)scale(0.1 -0.1)">
       <use transform="translate(0 0.09375)" xlink:href="#DejaVuSans-31"/>
      </g>
     </g>
    </g>
    <g id="xtick_3">
     <g id="line2d_3">
      <g>
       <use style="stroke:#000000;stroke-width:0.8;" x="146.454545" xlink:href="#mac4dcacd9b" y="441"/>
      </g>
     </g>
     <g id="text_3">
      <!-- $\mathdefault{2}$ -->
      <defs>
       <path d="M 19.1875 8.296875 
L 53.609375 8.296875 
L 53.609375 0 
L 7.328125 0 
L 7.328125 8.296875 
Q 12.9375 14.109375 22.625 23.890625 
Q 32.328125 33.6875 34.8125 36.53125 
Q 39.546875 41.84375 41.421875 45.53125 
Q 43.3125 49.21875 43.3125 52.78125 
Q 43.3125 58.59375 39.234375 62.25 
Q 35.15625 65.921875 28.609375 65.921875 
Q 23.96875 65.921875 18.8125 64.3125 
Q 13.671875 62.703125 7.8125 59.421875 
L 7.8125 69.390625 
Q 13.765625 71.78125 18.9375 73 
Q 24.125 74.21875 28.421875 74.21875 
Q 39.75 74.21875 46.484375 68.546875 
Q 53.21875 62.890625 53.21875 53.421875 
Q 53.21875 48.921875 51.53125 44.890625 
Q 49.859375 40.875 45.40625 35.40625 
Q 44.1875 33.984375 37.640625 27.21875 
Q 31.109375 20.453125 19.1875 8.296875 
z
" id="DejaVuSans-32"/>
      </defs>
      <g transform="translate(143.254545 455.598437)scale(0.1 -0.1)">
       <use transform="translate(0 0.78125)" xlink:href="#DejaVuSans-32"/>
      </g>
     </g>
    </g>
    <g id="xtick_4">
     <g id="line2d_4">
      <g>
       <use style="stroke:#000000;stroke-width:0.8;" x="197.181818" xlink:href="#mac4dcacd9b" y="441"/>
      </g>
     </g>
     <g id="text_4">
      <!-- $\mathdefault{3}$ -->
      <defs>
       <path d="M 40.578125 39.3125 
Q 47.65625 37.796875 51.625 33 
Q 55.609375 28.21875 55.609375 21.1875 
Q 55.609375 10.40625 48.1875 4.484375 
Q 40.765625 -1.421875 27.09375 -1.421875 
Q 22.515625 -1.421875 17.65625 -0.515625 
Q 12.796875 0.390625 7.625 2.203125 
L 7.625 11.71875 
Q 11.71875 9.328125 16.59375 8.109375 
Q 21.484375 6.890625 26.8125 6.890625 
Q 36.078125 6.890625 40.9375 10.546875 
Q 45.796875 14.203125 45.796875 21.1875 
Q 45.796875 27.640625 41.28125 31.265625 
Q 36.765625 34.90625 28.71875 34.90625 
L 20.21875 34.90625 
L 20.21875 43.015625 
L 29.109375 43.015625 
Q 36.375 43.015625 40.234375 45.921875 
Q 44.09375 48.828125 44.09375 54.296875 
Q 44.09375 59.90625 40.109375 62.90625 
Q 36.140625 65.921875 28.71875 65.921875 
Q 24.65625 65.921875 20.015625 65.03125 
Q 15.375 64.15625 9.8125 62.3125 
L 9.8125 71.09375 
Q 15.4375 72.65625 20.34375 73.4375 
Q 25.25 74.21875 29.59375 74.21875 
Q 40.828125 74.21875 47.359375 69.109375 
Q 53.90625 64.015625 53.90625 55.328125 
Q 53.90625 49.265625 50.4375 45.09375 
Q 46.96875 40.921875 40.578125 39.3125 
z
" id="DejaVuSans-33"/>
      </defs>
      <g transform="translate(193.981818 455.598437)scale(0.1 -0.1)">
       <use transform="translate(0 0.78125)" xlink:href="#DejaVuSans-33"/>
      </g>
     </g>
    </g>
    <g id="xtick_5">
     <g id="line2d_5">
      <g>
       <use style="stroke:#000000;stroke-width:0.8;" x="247.909091" xlink:href="#mac4dcacd9b" y="441"/>
      </g>
     </g>
     <g id="text_5">
      <!-- $\mathdefault{4}$ -->
      <defs>
       <path d="M 37.796875 64.3125 
L 12.890625 25.390625 
L 37.796875 25.390625 
z
M 35.203125 72.90625 
L 47.609375 72.90625 
L 47.609375 25.390625 
L 58.015625 25.390625 
L 58.015625 17.1875 
L 47.609375 17.1875 
L 47.609375 0 
L 37.796875 0 
L 37.796875 17.1875 
L 4.890625 17.1875 
L 4.890625 26.703125 
z
" id="DejaVuSans-34"/>
      </defs>
      <g transform="translate(244.709091 455.598437)scale(0.1 -0.1)">
       <use transform="translate(0 0.09375)" xlink:href="#DejaVuSans-34"/>
      </g>
     </g>
    </g>
    <g id="xtick_6">
     <g id="line2d_6">
      <g>
       <use style="stroke:#000000;stroke-width:0.8;" x="298.636364" xlink:href="#mac4dcacd9b" y="441"/>
      </g>
     </g>
     <g id="text_6">
      <!-- $\mathdefault{5}$ -->
      <defs>
       <path d="M 10.796875 72.90625 
L 49.515625 72.90625 
L 49.515625 64.59375 
L 19.828125 64.59375 
L 19.828125 46.734375 
Q 21.96875 47.46875 24.109375 47.828125 
Q 26.265625 48.1875 28.421875 48.1875 
Q 40.625 48.1875 47.75 41.5 
Q 54.890625 34.8125 54.890625 23.390625 
Q 54.890625 11.625 47.5625 5.09375 
Q 40.234375 -1.421875 26.90625 -1.421875 
Q 22.3125 -1.421875 17.546875 -0.640625 
Q 12.796875 0.140625 7.71875 1.703125 
L 7.71875 11.625 
Q 12.109375 9.234375 16.796875 8.0625 
Q 21.484375 6.890625 26.703125 6.890625 
Q 35.15625 6.890625 40.078125 11.328125 
Q 45.015625 15.765625 45.015625 23.390625 
Q 45.015625 31 40.078125 35.4375 
Q 35.15625 39.890625 26.703125 39.890625 
Q 22.75 39.890625 18.8125 39.015625 
Q 14.890625 38.140625 10.796875 36.28125 
z
" id="DejaVuSans-35"/>
      </defs>
      <g transform="translate(295.436364 455.598437)scale(0.1 -0.1)">
       <use transform="translate(0 0.09375)" xlink:href="#DejaVuSans-35"/>
      </g>
     </g>
    </g>
    <g id="text_7">
     <!-- Concentration (pg g$^{-1}$) -->
     <defs>
      <path d="M 64.40625 67.28125 
L 64.40625 56.890625 
Q 59.421875 61.53125 53.78125 63.8125 
Q 48.140625 66.109375 41.796875 66.109375 
Q 29.296875 66.109375 22.65625 58.46875 
Q 16.015625 50.828125 16.015625 36.375 
Q 16.015625 21.96875 22.65625 14.328125 
Q 29.296875 6.6875 41.796875 6.6875 
Q 48.140625 6.6875 53.78125 8.984375 
Q 59.421875 11.28125 64.40625 15.921875 
L 64.40625 5.609375 
Q 59.234375 2.09375 53.4375 0.328125 
Q 47.65625 -1.421875 41.21875 -1.421875 
Q 24.65625 -1.421875 15.125 8.703125 
Q 5.609375 18.84375 5.609375 36.375 
Q 5.609375 53.953125 15.125 64.078125 
Q 24.65625 74.21875 41.21875 74.21875 
Q 47.75 74.21875 53.53125 72.484375 
Q 59.328125 70.75 64.40625 67.28125 
z
" id="DejaVuSans-43"/>
      <path d="M 30.609375 48.390625 
Q 23.390625 48.390625 19.1875 42.75 
Q 14.984375 37.109375 14.984375 27.296875 
Q 14.984375 17.484375 19.15625 11.84375 
Q 23.34375 6.203125 30.609375 6.203125 
Q 37.796875 6.203125 41.984375 11.859375 
Q 46.1875 17.53125 46.1875 27.296875 
Q 46.1875 37.015625 41.984375 42.703125 
Q 37.796875 48.390625 30.609375 48.390625 
z
M 30.609375 56 
Q 42.328125 56 49.015625 48.375 
Q 55.71875 40.765625 55.71875 27.296875 
Q 55.71875 13.875 49.015625 6.21875 
Q 42.328125 -1.421875 30.609375 -1.421875 
Q 18.84375 -1.421875 12.171875 6.21875 
Q 5.515625 13.875 5.515625 27.296875 
Q 5.515625 40.765625 12.171875 48.375 
Q 18.84375 56 30.609375 56 
z
" id="DejaVuSans-6f"/>
      <path d="M 54.890625 33.015625 
L 54.890625 0 
L 45.90625 0 
L 45.90625 32.71875 
Q 45.90625 40.484375 42.875 44.328125 
Q 39.84375 48.1875 33.796875 48.1875 
Q 26.515625 48.1875 22.3125 43.546875 
Q 18.109375 38.921875 18.109375 30.90625 
L 18.109375 0 
L 9.078125 0 
L 9.078125 54.6875 
L 18.109375 54.6875 
L 18.109375 46.1875 
Q 21.34375 51.125 25.703125 53.5625 
Q 30.078125 56 35.796875 56 
Q 45.21875 56 50.046875 50.171875 
Q 54.890625 44.34375 54.890625 33.015625 
z
" id="DejaVuSans-6e"/>
      <path d="M 48.78125 52.59375 
L 48.78125 44.1875 
Q 44.96875 46.296875 41.140625 47.34375 
Q 37.3125 48.390625 33.40625 48.390625 
Q 24.65625 48.390625 19.8125 42.84375 
Q 14.984375 37.3125 14.984375 27.296875 
Q 14.984375 17.28125 19.8125 11.734375 
Q 24.65625 6.203125 33.40625 6.203125 
Q 37.3125 6.203125 41.140625 7.25 
Q 44.96875 8.296875 48.78125 10.40625 
L 48.78125 2.09375 
Q 45.015625 0.34375 40.984375 -0.53125 
Q 36.96875 -1.421875 32.421875 -1.421875 
Q 20.0625 -1.421875 12.78125 6.34375 
Q 5.515625 14.109375 5.515625 27.296875 
Q 5.515625 40.671875 12.859375 48.328125 
Q 20.21875 56 33.015625 56 
Q 37.15625 56 41.109375 55.140625 
Q 45.0625 54.296875 48.78125 52.59375 
z
" id="DejaVuSans-63"/>
      <path d="M 56.203125 29.59375 
L 56.203125 25.203125 
L 14.890625 25.203125 
Q 15.484375 15.921875 20.484375 11.0625 
Q 25.484375 6.203125 34.421875 6.203125 
Q 39.59375 6.203125 44.453125 7.46875 
Q 49.3125 8.734375 54.109375 11.28125 
L 54.109375 2.78125 
Q 49.265625 0.734375 44.1875 -0.34375 
Q 39.109375 -1.421875 33.890625 -1.421875 
Q 20.796875 -1.421875 13.15625 6.1875 
Q 5.515625 13.8125 5.515625 26.8125 
Q 5.515625 40.234375 12.765625 48.109375 
Q 20.015625 56 32.328125 56 
Q 43.359375 56 49.78125 48.890625 
Q 56.203125 41.796875 56.203125 29.59375 
z
M 47.21875 32.234375 
Q 47.125 39.59375 43.09375 43.984375 
Q 39.0625 48.390625 32.421875 48.390625 
Q 24.90625 48.390625 20.390625 44.140625 
Q 15.875 39.890625 15.1875 32.171875 
z
" id="DejaVuSans-65"/>
      <path d="M 18.3125 70.21875 
L 18.3125 54.6875 
L 36.8125 54.6875 
L 36.8125 47.703125 
L 18.3125 47.703125 
L 18.3125 18.015625 
Q 18.3125 11.328125 20.140625 9.421875 
Q 21.96875 7.515625 27.59375 7.515625 
L 36.8125 7.515625 
L 36.8125 0 
L 27.59375 0 
Q 17.1875 0 13.234375 3.875 
Q 9.28125 7.765625 9.28125 18.015625 
L 9.28125 47.703125 
L 2.6875 47.703125 
L 2.6875 54.6875 
L 9.28125 54.6875 
L 9.28125 70.21875 
z
" id="DejaVuSans-74"/>
      <path d="M 41.109375 46.296875 
Q 39.59375 47.171875 37.8125 47.578125 
Q 36.03125 48 33.890625 48 
Q 26.265625 48 22.1875 43.046875 
Q 18.109375 38.09375 18.109375 28.8125 
L 18.109375 0 
L 9.078125 0 
L 9.078125 54.6875 
L 18.109375 54.6875 
L 18.109375 46.1875 
Q 20.953125 51.171875 25.484375 53.578125 
Q 30.03125 56 36.53125 56 
Q 37.453125 56 38.578125 55.875 
Q 39.703125 55.765625 41.0625 55.515625 
z
" id="DejaVuSans-72"/>
      <path d="M 34.28125 27.484375 
Q 23.390625 27.484375 19.1875 25 
Q 14.984375 22.515625 14.984375 16.5 
Q 14.984375 11.71875 18.140625 8.90625 
Q 21.296875 6.109375 26.703125 6.109375 
Q 34.1875 6.109375 38.703125 11.40625 
Q 43.21875 16.703125 43.21875 25.484375 
L 43.21875 27.484375 
z
M 52.203125 31.203125 
L 52.203125 0 
L 43.21875 0 
L 43.21875 8.296875 
Q 40.140625 3.328125 35.546875 0.953125 
Q 30.953125 -1.421875 24.3125 -1.421875 
Q 15.921875 -1.421875 10.953125 3.296875 
Q 6 8.015625 6 15.921875 
Q 6 25.140625 12.171875 29.828125 
Q 18.359375 34.515625 30.609375 34.515625 
L 43.21875 34.515625 
L 43.21875 35.40625 
Q 43.21875 41.609375 39.140625 45 
Q 35.0625 48.390625 27.6875 48.390625 
Q 23 48.390625 18.546875 47.265625 
Q 14.109375 46.140625 10.015625 43.890625 
L 10.015625 52.203125 
Q 14.9375 54.109375 19.578125 55.046875 
Q 24.21875 56 28.609375 56 
Q 40.484375 56 46.34375 49.84375 
Q 52.203125 43.703125 52.203125 31.203125 
z
" id="DejaVuSans-61"/>
      <path d="M 9.421875 54.6875 
L 18.40625 54.6875 
L 18.40625 0 
L 9.421875 0 
z
M 9.421875 75.984375 
L 18.40625 75.984375 
L 18.40625 64.59375 
L 9.421875 64.59375 
z
" id="DejaVuSans-69"/>
      <path id="DejaVuSans-20"/>
      <path d="M 31 75.875 
Q 24.46875 64.65625 21.28125 53.65625 
Q 18.109375 42.671875 18.109375 31.390625 
Q 18.109375 20.125 21.3125 9.0625 
Q 24.515625 -2 31 -13.1875 
L 23.1875 -13.1875 
Q 15.875 -1.703125 12.234375 9.375 
Q 8.59375 20.453125 8.59375 31.390625 
Q 8.59375 42.28125 12.203125 53.3125 
Q 15.828125 64.359375 23.1875 75.875 
z
" id="DejaVuSans-28"/>
      <path d="M 18.109375 8.203125 
L 18.109375 -20.796875 
L 9.078125 -20.796875 
L 9.078125 54.6875 
L 18.109375 54.6875 
L 18.109375 46.390625 
Q 20.953125 51.265625 25.265625 53.625 
Q 29.59375 56 35.59375 56 
Q 45.5625 56 51.78125 48.09375 
Q 58.015625 40.1875 58.015625 27.296875 
Q 58.015625 14.40625 51.78125 6.484375 
Q 45.5625 -1.421875 35.59375 -1.421875 
Q 29.59375 -1.421875 25.265625 0.953125 
Q 20.953125 3.328125 18.109375 8.203125 
z
M 48.6875 27.296875 
Q 48.6875 37.203125 44.609375 42.84375 
Q 40.53125 48.484375 33.40625 48.484375 
Q 26.265625 48.484375 22.1875 42.84375 
Q 18.109375 37.203125 18.109375 27.296875 
Q 18.109375 17.390625 22.1875 11.75 
Q 26.265625 6.109375 33.40625 6.109375 
Q 40.53125 6.109375 44.609375 11.75 
Q 48.6875 17.390625 48.6875 27.296875 
z
" id="DejaVuSans-70"/>
      <path d="M 45.40625 27.984375 
Q 45.40625 37.75 41.375 43.109375 
Q 37.359375 48.484375 30.078125 48.484375 
Q 22.859375 48.484375 18.828125 43.109375 
Q 14.796875 37.75 14.796875 27.984375 
Q 14.796875 18.265625 18.828125 12.890625 
Q 22.859375 7.515625 30.078125 7.515625 
Q 37.359375 7.515625 41.375 12.890625 
Q 45.40625 18.265625 45.40625 27.984375 
z
M 54.390625 6.78125 
Q 54.390625 -7.171875 48.1875 -13.984375 
Q 42 -20.796875 29.203125 -20.796875 
Q 24.46875 -20.796875 20.265625 -20.09375 
Q 16.0625 -19.390625 12.109375 -17.921875 
L 12.109375 -9.1875 
Q 16.0625 -11.328125 19.921875 -12.34375 
Q 23.78125 -13.375 27.78125 -13.375 
Q 36.625 -13.375 41.015625 -8.765625 
Q 45.40625 -4.15625 45.40625 5.171875 
L 45.40625 9.625 
Q 42.625 4.78125 38.28125 2.390625 
Q 33.9375 0 27.875 0 
Q 17.828125 0 11.671875 7.65625 
Q 5.515625 15.328125 5.515625 27.984375 
Q 5.515625 40.671875 11.671875 48.328125 
Q 17.828125 56 27.875 56 
Q 33.9375 56 38.28125 53.609375 
Q 42.625 51.21875 45.40625 46.390625 
L 45.40625 54.6875 
L 54.390625 54.6875 
z
" id="DejaVuSans-67"/>
      <path d="M 10.59375 35.5 
L 73.1875 35.5 
L 73.1875 27.203125 
L 10.59375 27.203125 
z
" id="DejaVuSans-2212"/>
      <path d="M 8.015625 75.875 
L 15.828125 75.875 
Q 23.140625 64.359375 26.78125 53.3125 
Q 30.421875 42.28125 30.421875 31.390625 
Q 30.421875 20.453125 26.78125 9.375 
Q 23.140625 -1.703125 15.828125 -13.1875 
L 8.015625 -13.1875 
Q 14.5 -2 17.703125 9.0625 
Q 20.90625 20.125 20.90625 31.390625 
Q 20.90625 42.671875 17.703125 53.65625 
Q 14.5 64.65625 8.015625 75.875 
z
" id="DejaVuSans-29"/>
     </defs>
     <g transform="translate(127.15 470.678125)scale(0.1 -0.1)">
      <use transform="translate(0 0.684375)" xlink:href="#DejaVuSans-43"/>
      <use transform="translate(69.824219 0.684375)" xlink:href="#DejaVuSans-6f"/>
      <use transform="translate(131.005859 0.684375)" xlink:href="#DejaVuSans-6e"/>
      <use transform="translate(194.384766 0.684375)" xlink:href="#DejaVuSans-63"/>
      <use transform="translate(249.365234 0.684375)" xlink:href="#DejaVuSans-65"/>
      <use transform="translate(310.888672 0.684375)" xlink:href="#DejaVuSans-6e"/>
      <use transform="translate(374.267578 0.684375)" xlink:href="#DejaVuSans-74"/>
      <use transform="translate(413.476562 0.684375)" xlink:href="#DejaVuSans-72"/>
      <use transform="translate(454.589844 0.684375)" xlink:href="#DejaVuSans-61"/>
      <use transform="translate(515.869141 0.684375)" xlink:href="#DejaVuSans-74"/>
      <use transform="translate(555.078125 0.684375)" xlink:href="#DejaVuSans-69"/>
      <use transform="translate(582.861328 0.684375)" xlink:href="#DejaVuSans-6f"/>
      <use transform="translate(644.042969 0.684375)" xlink:href="#DejaVuSans-6e"/>
      <use transform="translate(707.421875 0.684375)" xlink:href="#DejaVuSans-20"/>
      <use transform="translate(739.208984 0.684375)" xlink:href="#DejaVuSans-28"/>
      <use transform="translate(778.222656 0.684375)" xlink:href="#DejaVuSans-70"/>
      <use transform="translate(841.699219 0.684375)" xlink:href="#DejaVuSans-67"/>
      <use transform="translate(905.175781 0.684375)" xlink:href="#DejaVuSans-20"/>
      <use transform="translate(936.962891 0.684375)" xlink:href="#DejaVuSans-67"/>
      <use transform="translate(1001.396484 38.965625)scale(0.7)" xlink:href="#DejaVuSans-2212"/>
      <use transform="translate(1060.048828 38.965625)scale(0.7)" xlink:href="#DejaVuSans-31"/>
      <use transform="translate(1107.319336 0.684375)" xlink:href="#DejaVuSans-29"/>
     </g>
    </g>
    <g id="text_8">
     <!-- $\times\mathdefault{10^{3}}\mathdefault{}$ -->
     <defs>
      <path d="M 70.125 53.71875 
L 47.796875 31.296875 
L 70.125 8.984375 
L 64.3125 3.078125 
L 41.890625 25.484375 
L 19.484375 3.078125 
L 13.71875 8.984375 
L 35.984375 31.296875 
L 13.71875 53.71875 
L 19.484375 59.625 
L 41.890625 37.203125 
L 64.3125 59.625 
z
" id="DejaVuSans-d7"/>
     </defs>
     <g transform="translate(298 468.276563)scale(0.1 -0.1)">
      <use transform="translate(0 0.765625)" xlink:href="#DejaVuSans-d7"/>
      <use transform="translate(83.789062 0.765625)" xlink:href="#DejaVuSans-31"/>
      <use transform="translate(147.412109 0.765625)" xlink:href="#DejaVuSans-30"/>
      <use transform="translate(211.992188 39.046875)scale(0.7)" xlink:href="#DejaVuSans-33"/>
     </g>
    </g>
   </g>
   <g id="matplotlib.axis_2">
    <g id="ytick_1">
     <g id="line2d_7">
      <defs>
       <path d="M 0 0 
L -3.5 0 
" id="m95ea5d9aa5" style="stroke:#000000;stroke-width:0.8;"/>
      </defs>
      <g>
       <use style="stroke:#000000;stroke-width:0.8;" x="45" xlink:href="#m95ea5d9aa5" y="430.986316"/>
      </g>
     </g>
     <g id="text_9">
      <!-- AL17 -->
      <defs>
       <path d="M 34.1875 63.1875 
L 20.796875 26.90625 
L 47.609375 26.90625 
z
M 28.609375 72.90625 
L 39.796875 72.90625 
L 67.578125 0 
L 57.328125 0 
L 50.6875 18.703125 
L 17.828125 18.703125 
L 11.1875 0 
L 0.78125 0 
z
" id="DejaVuSans-41"/>
       <path d="M 9.8125 72.90625 
L 19.671875 72.90625 
L 19.671875 8.296875 
L 55.171875 8.296875 
L 55.171875 0 
L 9.8125 0 
z
" id="DejaVuSans-4c"/>
       <path d="M 8.203125 72.90625 
L 55.078125 72.90625 
L 55.078125 68.703125 
L 28.609375 0 
L 18.3125 0 
L 43.21875 64.59375 
L 8.203125 64.59375 
z
" id="DejaVuSans-37"/>
      </defs>
      <g transform="translate(12.8625 434.785535)scale(0.1 -0.1)">
       <use xlink:href="#DejaVuSans-41"/>
       <use x="68.408203" xlink:href="#DejaVuSans-4c"/>
       <use x="124.121094" xlink:href="#DejaVuSans-31"/>
       <use x="187.744141" xlink:href="#DejaVuSans-37"/>
      </g>
     </g>
    </g>
    <g id="ytick_2">
     <g id="line2d_8">
      <g>
       <use style="stroke:#000000;stroke-width:0.8;" x="45" xlink:href="#m95ea5d9aa5" y="410.958947"/>
      </g>
     </g>
     <g id="text_10">
      <!-- AL16 -->
      <defs>
       <path d="M 33.015625 40.375 
Q 26.375 40.375 22.484375 35.828125 
Q 18.609375 31.296875 18.609375 23.390625 
Q 18.609375 15.53125 22.484375 10.953125 
Q 26.375 6.390625 33.015625 6.390625 
Q 39.65625 6.390625 43.53125 10.953125 
Q 47.40625 15.53125 47.40625 23.390625 
Q 47.40625 31.296875 43.53125 35.828125 
Q 39.65625 40.375 33.015625 40.375 
z
M 52.59375 71.296875 
L 52.59375 62.3125 
Q 48.875 64.0625 45.09375 64.984375 
Q 41.3125 65.921875 37.59375 65.921875 
Q 27.828125 65.921875 22.671875 59.328125 
Q 17.53125 52.734375 16.796875 39.40625 
Q 19.671875 43.65625 24.015625 45.921875 
Q 28.375 48.1875 33.59375 48.1875 
Q 44.578125 48.1875 50.953125 41.515625 
Q 57.328125 34.859375 57.328125 23.390625 
Q 57.328125 12.15625 50.6875 5.359375 
Q 44.046875 -1.421875 33.015625 -1.421875 
Q 20.359375 -1.421875 13.671875 8.265625 
Q 6.984375 17.96875 6.984375 36.375 
Q 6.984375 53.65625 15.1875 63.9375 
Q 23.390625 74.21875 37.203125 74.21875 
Q 40.921875 74.21875 44.703125 73.484375 
Q 48.484375 72.75 52.59375 71.296875 
z
" id="DejaVuSans-36"/>
      </defs>
      <g transform="translate(12.8625 414.758166)scale(0.1 -0.1)">
       <use xlink:href="#DejaVuSans-41"/>
       <use x="68.408203" xlink:href="#DejaVuSans-4c"/>
       <use x="124.121094" xlink:href="#DejaVuSans-31"/>
       <use x="187.744141" xlink:href="#DejaVuSans-36"/>
      </g>
     </g>
    </g>
    <g id="ytick_3">
     <g id="line2d_9">
      <g>
       <use style="stroke:#000000;stroke-width:0.8;" x="45" xlink:href="#m95ea5d9aa5" y="390.931579"/>
      </g>
     </g>
     <g id="text_11">
      <!-- AL15 -->
      <g transform="translate(12.8625 394.730798)scale(0.1 -0.1)">
       <use xlink:href="#DejaVuSans-41"/>
       <use x="68.408203" xlink:href="#DejaVuSans-4c"/>
       <use x="124.121094" xlink:href="#DejaVuSans-31"/>
       <use x="187.744141" xlink:href="#DejaVuSans-35"/>
      </g>
     </g>
    </g>
    <g id="ytick_4">
     <g id="line2d_10">
      <g>
       <use style="stroke:#000000;stroke-width:0.8;" x="45" xlink:href="#m95ea5d9aa5" y="370.904211"/>
      </g>
     </g>
     <g id="text_12">
      <!-- AL14 -->
      <g transform="translate(12.8625 374.703429)scale(0.1 -0.1)">
       <use xlink:href="#DejaVuSans-41"/>
       <use x="68.408203" xlink:href="#DejaVuSans-4c"/>
       <use x="124.121094" xlink:href="#DejaVuSans-31"/>
       <use x="187.744141" xlink:href="#DejaVuSans-34"/>
      </g>
     </g>
    </g>
    <g id="ytick_5">
     <g id="line2d_11">
      <g>
       <use style="stroke:#000000;stroke-width:0.8;" x="45" xlink:href="#m95ea5d9aa5" y="350.876842"/>
      </g>
     </g>
     <g id="text_13">
      <!-- AL13 -->
      <g transform="translate(12.8625 354.676061)scale(0.1 -0.1)">
       <use xlink:href="#DejaVuSans-41"/>
       <use x="68.408203" xlink:href="#DejaVuSans-4c"/>
       <use x="124.121094" xlink:href="#DejaVuSans-31"/>
       <use x="187.744141" xlink:href="#DejaVuSans-33"/>
      </g>
     </g>
    </g>
    <g id="ytick_6">
     <g id="line2d_12">
      <g>
       <use style="stroke:#000000;stroke-width:0.8;" x="45" xlink:href="#m95ea5d9aa5" y="330.849474"/>
      </g>
     </g>
     <g id="text_14">
      <!-- AL12 -->
      <g transform="translate(12.8625 334.648692)scale(0.1 -0.1)">
       <use xlink:href="#DejaVuSans-41"/>
       <use x="68.408203" xlink:href="#DejaVuSans-4c"/>
       <use x="124.121094" xlink:href="#DejaVuSans-31"/>
       <use x="187.744141" xlink:href="#DejaVuSans-32"/>
      </g>
     </g>
    </g>
    <g id="ytick_7">
     <g id="line2d_13">
      <g>
       <use style="stroke:#000000;stroke-width:0.8;" x="45" xlink:href="#m95ea5d9aa5" y="310.822105"/>
      </g>
     </g>
     <g id="text_15">
      <!-- AL11 -->
      <g transform="translate(12.8625 314.621324)scale(0.1 -0.1)">
       <use xlink:href="#DejaVuSans-41"/>
       <use x="68.408203" xlink:href="#DejaVuSans-4c"/>
       <use x="124.121094" xlink:href="#DejaVuSans-31"/>
       <use x="187.744141" xlink:href="#DejaVuSans-31"/>
      </g>
     </g>
    </g>
    <g id="ytick_8">
     <g id="line2d_14">
      <g>
       <use style="stroke:#000000;stroke-width:0.8;" x="45" xlink:href="#m95ea5d9aa5" y="290.794737"/>
      </g>
     </g>
     <g id="text_16">
      <!-- AL10 -->
      <g transform="translate(12.8625 294.593956)scale(0.1 -0.1)">
       <use xlink:href="#DejaVuSans-41"/>
       <use x="68.408203" xlink:href="#DejaVuSans-4c"/>
       <use x="124.121094" xlink:href="#DejaVuSans-31"/>
       <use x="187.744141" xlink:href="#DejaVuSans-30"/>
      </g>
     </g>
    </g>
    <g id="ytick_9">
     <g id="line2d_15">
      <g>
       <use style="stroke:#000000;stroke-width:0.8;" x="45" xlink:href="#m95ea5d9aa5" y="270.767368"/>
      </g>
     </g>
     <g id="text_17">
      <!-- AL9 -->
      <defs>
       <path d="M 10.984375 1.515625 
L 10.984375 10.5 
Q 14.703125 8.734375 18.5 7.8125 
Q 22.3125 6.890625 25.984375 6.890625 
Q 35.75 6.890625 40.890625 13.453125 
Q 46.046875 20.015625 46.78125 33.40625 
Q 43.953125 29.203125 39.59375 26.953125 
Q 35.25 24.703125 29.984375 24.703125 
Q 19.046875 24.703125 12.671875 31.3125 
Q 6.296875 37.9375 6.296875 49.421875 
Q 6.296875 60.640625 12.9375 67.421875 
Q 19.578125 74.21875 30.609375 74.21875 
Q 43.265625 74.21875 49.921875 64.515625 
Q 56.59375 54.828125 56.59375 36.375 
Q 56.59375 19.140625 48.40625 8.859375 
Q 40.234375 -1.421875 26.421875 -1.421875 
Q 22.703125 -1.421875 18.890625 -0.6875 
Q 15.09375 0.046875 10.984375 1.515625 
z
M 30.609375 32.421875 
Q 37.25 32.421875 41.125 36.953125 
Q 45.015625 41.5 45.015625 49.421875 
Q 45.015625 57.28125 41.125 61.84375 
Q 37.25 66.40625 30.609375 66.40625 
Q 23.96875 66.40625 20.09375 61.84375 
Q 16.21875 57.28125 16.21875 49.421875 
Q 16.21875 41.5 20.09375 36.953125 
Q 23.96875 32.421875 30.609375 32.421875 
z
" id="DejaVuSans-39"/>
      </defs>
      <g transform="translate(19.225 274.566587)scale(0.1 -0.1)">
       <use xlink:href="#DejaVuSans-41"/>
       <use x="68.408203" xlink:href="#DejaVuSans-4c"/>
       <use x="124.121094" xlink:href="#DejaVuSans-39"/>
      </g>
     </g>
    </g>
    <g id="ytick_10">
     <g id="line2d_16">
      <g>
       <use style="stroke:#000000;stroke-width:0.8;" x="45" xlink:href="#m95ea5d9aa5" y="250.74"/>
      </g>
     </g>
     <g id="text_18">
      <!-- AL8 -->
      <defs>
       <path d="M 31.78125 34.625 
Q 24.75 34.625 20.71875 30.859375 
Q 16.703125 27.09375 16.703125 20.515625 
Q 16.703125 13.921875 20.71875 10.15625 
Q 24.75 6.390625 31.78125 6.390625 
Q 38.8125 6.390625 42.859375 10.171875 
Q 46.921875 13.96875 46.921875 20.515625 
Q 46.921875 27.09375 42.890625 30.859375 
Q 38.875 34.625 31.78125 34.625 
z
M 21.921875 38.8125 
Q 15.578125 40.375 12.03125 44.71875 
Q 8.5 49.078125 8.5 55.328125 
Q 8.5 64.0625 14.71875 69.140625 
Q 20.953125 74.21875 31.78125 74.21875 
Q 42.671875 74.21875 48.875 69.140625 
Q 55.078125 64.0625 55.078125 55.328125 
Q 55.078125 49.078125 51.53125 44.71875 
Q 48 40.375 41.703125 38.8125 
Q 48.828125 37.15625 52.796875 32.3125 
Q 56.78125 27.484375 56.78125 20.515625 
Q 56.78125 9.90625 50.3125 4.234375 
Q 43.84375 -1.421875 31.78125 -1.421875 
Q 19.734375 -1.421875 13.25 4.234375 
Q 6.78125 9.90625 6.78125 20.515625 
Q 6.78125 27.484375 10.78125 32.3125 
Q 14.796875 37.15625 21.921875 38.8125 
z
M 18.3125 54.390625 
Q 18.3125 48.734375 21.84375 45.5625 
Q 25.390625 42.390625 31.78125 42.390625 
Q 38.140625 42.390625 41.71875 45.5625 
Q 45.3125 48.734375 45.3125 54.390625 
Q 45.3125 60.0625 41.71875 63.234375 
Q 38.140625 66.40625 31.78125 66.40625 
Q 25.390625 66.40625 21.84375 63.234375 
Q 18.3125 60.0625 18.3125 54.390625 
z
" id="DejaVuSans-38"/>
      </defs>
      <g transform="translate(19.225 254.539219)scale(0.1 -0.1)">
       <use xlink:href="#DejaVuSans-41"/>
       <use x="68.408203" xlink:href="#DejaVuSans-4c"/>
       <use x="124.121094" xlink:href="#DejaVuSans-38"/>
      </g>
     </g>
    </g>
    <g id="ytick_11">
     <g id="line2d_17">
      <g>
       <use style="stroke:#000000;stroke-width:0.8;" x="45" xlink:href="#m95ea5d9aa5" y="230.712632"/>
      </g>
     </g>
     <g id="text_19">
      <!-- AL7 -->
      <g transform="translate(19.225 234.51185)scale(0.1 -0.1)">
       <use xlink:href="#DejaVuSans-41"/>
       <use x="68.408203" xlink:href="#DejaVuSans-4c"/>
       <use x="124.121094" xlink:href="#DejaVuSans-37"/>
      </g>
     </g>
    </g>
    <g id="ytick_12">
     <g id="line2d_18">
      <g>
       <use style="stroke:#000000;stroke-width:0.8;" x="45" xlink:href="#m95ea5d9aa5" y="210.685263"/>
      </g>
     </g>
     <g id="text_20">
      <!-- AL6 -->
      <g transform="translate(19.225 214.484482)scale(0.1 -0.1)">
       <use xlink:href="#DejaVuSans-41"/>
       <use x="68.408203" xlink:href="#DejaVuSans-4c"/>
       <use x="124.121094" xlink:href="#DejaVuSans-36"/>
      </g>
     </g>
    </g>
    <g id="ytick_13">
     <g id="line2d_19">
      <g>
       <use style="stroke:#000000;stroke-width:0.8;" x="45" xlink:href="#m95ea5d9aa5" y="190.657895"/>
      </g>
     </g>
     <g id="text_21">
      <!-- AL5 -->
      <g transform="translate(19.225 194.457113)scale(0.1 -0.1)">
       <use xlink:href="#DejaVuSans-41"/>
       <use x="68.408203" xlink:href="#DejaVuSans-4c"/>
       <use x="124.121094" xlink:href="#DejaVuSans-35"/>
      </g>
     </g>
    </g>
    <g id="ytick_14">
     <g id="line2d_20">
      <g>
       <use style="stroke:#000000;stroke-width:0.8;" x="45" xlink:href="#m95ea5d9aa5" y="170.630526"/>
      </g>
     </g>
     <g id="text_22">
      <!-- AL4 -->
      <g transform="translate(19.225 174.429745)scale(0.1 -0.1)">
       <use xlink:href="#DejaVuSans-41"/>
       <use x="68.408203" xlink:href="#DejaVuSans-4c"/>
       <use x="124.121094" xlink:href="#DejaVuSans-34"/>
      </g>
     </g>
    </g>
    <g id="ytick_15">
     <g id="line2d_21">
      <g>
       <use style="stroke:#000000;stroke-width:0.8;" x="45" xlink:href="#m95ea5d9aa5" y="150.603158"/>
      </g>
     </g>
     <g id="text_23">
      <!-- AL3 -->
      <g transform="translate(19.225 154.402377)scale(0.1 -0.1)">
       <use xlink:href="#DejaVuSans-41"/>
       <use x="68.408203" xlink:href="#DejaVuSans-4c"/>
       <use x="124.121094" xlink:href="#DejaVuSans-33"/>
      </g>
     </g>
    </g>
    <g id="ytick_16">
     <g id="line2d_22">
      <g>
       <use style="stroke:#000000;stroke-width:0.8;" x="45" xlink:href="#m95ea5d9aa5" y="130.575789"/>
      </g>
     </g>
     <g id="text_24">
      <!-- AL2 -->
      <g transform="translate(19.225 134.375008)scale(0.1 -0.1)">
       <use xlink:href="#DejaVuSans-41"/>
       <use x="68.408203" xlink:href="#DejaVuSans-4c"/>
       <use x="124.121094" xlink:href="#DejaVuSans-32"/>
      </g>
     </g>
    </g>
    <g id="ytick_17">
     <g id="line2d_23">
      <g>
       <use style="stroke:#000000;stroke-width:0.8;" x="45" xlink:href="#m95ea5d9aa5" y="110.548421"/>
      </g>
     </g>
     <g id="text_25">
      <!-- AL1 -->
      <g transform="translate(19.225 114.34764)scale(0.1 -0.1)">
       <use xlink:href="#DejaVuSans-41"/>
       <use x="68.408203" xlink:href="#DejaVuSans-4c"/>
       <use x="124.121094" xlink:href="#DejaVuSans-31"/>
      </g>
     </g>
    </g>
    <g id="ytick_18">
     <g id="line2d_24">
      <g>
       <use style="stroke:#000000;stroke-width:0.8;" x="45" xlink:href="#m95ea5d9aa5" y="90.521053"/>
      </g>
     </g>
     <g id="text_26">
      <!-- Control -->
      <defs>
       <path d="M 9.421875 75.984375 
L 18.40625 75.984375 
L 18.40625 0 
L 9.421875 0 
z
" id="DejaVuSans-6c"/>
      </defs>
      <g transform="translate(1.635937 94.320271)scale(0.1 -0.1)">
       <use xlink:href="#DejaVuSans-43"/>
       <use x="69.824219" xlink:href="#DejaVuSans-6f"/>
       <use x="131.005859" xlink:href="#DejaVuSans-6e"/>
       <use x="194.384766" xlink:href="#DejaVuSans-74"/>
       <use x="233.59375" xlink:href="#DejaVuSans-72"/>
       <use x="274.675781" xlink:href="#DejaVuSans-6f"/>
       <use x="335.857422" xlink:href="#DejaVuSans-6c"/>
      </g>
     </g>
    </g>
    <g id="ytick_19">
     <g id="line2d_25">
      <g>
       <use style="stroke:#000000;stroke-width:0.8;" x="45" xlink:href="#m95ea5d9aa5" y="70.493684"/>
      </g>
     </g>
     <g id="text_27">
      <!-- Blank -->
      <defs>
       <path d="M 19.671875 34.8125 
L 19.671875 8.109375 
L 35.5 8.109375 
Q 43.453125 8.109375 47.28125 11.40625 
Q 51.125 14.703125 51.125 21.484375 
Q 51.125 28.328125 47.28125 31.5625 
Q 43.453125 34.8125 35.5 34.8125 
z
M 19.671875 64.796875 
L 19.671875 42.828125 
L 34.28125 42.828125 
Q 41.5 42.828125 45.03125 45.53125 
Q 48.578125 48.25 48.578125 53.8125 
Q 48.578125 59.328125 45.03125 62.0625 
Q 41.5 64.796875 34.28125 64.796875 
z
M 9.8125 72.90625 
L 35.015625 72.90625 
Q 46.296875 72.90625 52.390625 68.21875 
Q 58.5 63.53125 58.5 54.890625 
Q 58.5 48.1875 55.375 44.234375 
Q 52.25 40.28125 46.1875 39.3125 
Q 53.46875 37.75 57.5 32.78125 
Q 61.53125 27.828125 61.53125 20.40625 
Q 61.53125 10.640625 54.890625 5.3125 
Q 48.25 0 35.984375 0 
L 9.8125 0 
z
" id="DejaVuSans-42"/>
       <path d="M 9.078125 75.984375 
L 18.109375 75.984375 
L 18.109375 31.109375 
L 44.921875 54.6875 
L 56.390625 54.6875 
L 27.390625 29.109375 
L 57.625 0 
L 45.90625 0 
L 18.109375 26.703125 
L 18.109375 0 
L 9.078125 0 
z
" id="DejaVuSans-6b"/>
      </defs>
      <g transform="translate(10.104687 74.292903)scale(0.1 -0.1)">
       <use xlink:href="#DejaVuSans-42"/>
       <use x="68.603516" xlink:href="#DejaVuSans-6c"/>
       <use x="96.386719" xlink:href="#DejaVuSans-61"/>
       <use x="157.666016" xlink:href="#DejaVuSans-6e"/>
       <use x="221.044922" xlink:href="#DejaVuSans-6b"/>
      </g>
     </g>
    </g>
   </g>
   <g id="patch_212">
    <path d="M 45 441 
L 45 60.48 
" style="fill:none;stroke:#000000;stroke-linecap:square;stroke-linejoin:miter;stroke-width:0.8;"/>
   </g>
   <g id="patch_213">
    <path d="M 324 441 
L 324 60.48 
" style="fill:none;stroke:#000000;stroke-linecap:square;stroke-linejoin:miter;stroke-width:0.8;"/>
   </g>
   <g id="patch_214">
    <path d="M 45 441 
L 324 441 
" style="fill:none;stroke:#000000;stroke-linecap:square;stroke-linejoin:miter;stroke-width:0.8;"/>
   </g>
   <g id="patch_215">
    <path d="M 45 60.48 
L 324 60.48 
" style="fill:none;stroke:#000000;stroke-linecap:square;stroke-linejoin:miter;stroke-width:0.8;"/>
   </g>
  </g>
 </g>
 <defs>
  <clipPath id="p56c4b8253f">
   <rect height="380.52" width="279" x="45" y="60.48"/>
  </clipPath>
 </defs>
</svg>
